<?xml version="1.0" encoding="UTF-8" standalone="no"?>
<svg width="88.6239mm" height="88.3478mm"
 viewBox="0 0 321 320"
 xmlns="http://www.w3.org/2000/svg" xmlns:xlink="http://www.w3.org/1999/xlink"  version="1.2" baseProfile="tiny">
<title>Semantik diagram</title>
<desc>Generated with Qt</desc>
<defs>
<linearGradient gradientUnits="userSpaceOnUse" x1="0" y1="0" x2="106" y2="0" id="gradient1">
    <stop offset="0" stop-color="#cafeba" stop-opacity="1" />
    <stop offset="1" stop-color="#b8e7a9" stop-opacity="1" />
</linearGradient>
<linearGradient gradientUnits="userSpaceOnUse" x1="0" y1="0" x2="106" y2="0" id="gradient2">
    <stop offset="0" stop-color="#cafeba" stop-opacity="1" />
    <stop offset="1" stop-color="#b8e7a9" stop-opacity="1" />
</linearGradient>
<linearGradient gradientUnits="userSpaceOnUse" x1="0" y1="0" x2="106" y2="0" id="gradient3">
    <stop offset="0" stop-color="#cafeba" stop-opacity="1" />
    <stop offset="1" stop-color="#b8e7a9" stop-opacity="1" />
</linearGradient>
<linearGradient gradientUnits="userSpaceOnUse" x1="0" y1="0" x2="106" y2="0" id="gradient4">
    <stop offset="0" stop-color="#cafeba" stop-opacity="1" />
    <stop offset="1" stop-color="#b8e7a9" stop-opacity="1" />
</linearGradient>
<linearGradient gradientUnits="userSpaceOnUse" x1="0" y1="0" x2="106" y2="0" id="gradient5">
    <stop offset="0" stop-color="#cafeba" stop-opacity="1" />
    <stop offset="1" stop-color="#b8e7a9" stop-opacity="1" />
</linearGradient>
<linearGradient gradientUnits="userSpaceOnUse" x1="0" y1="0" x2="106" y2="0" id="gradient6">
    <stop offset="0" stop-color="#cafeba" stop-opacity="1" />
    <stop offset="1" stop-color="#b8e7a9" stop-opacity="1" />
</linearGradient>
<linearGradient gradientUnits="userSpaceOnUse" x1="0" y1="0" x2="106" y2="0" id="gradient7">
    <stop offset="0" stop-color="#cafeba" stop-opacity="1" />
    <stop offset="1" stop-color="#b8e7a9" stop-opacity="1" />
</linearGradient>
<linearGradient gradientUnits="userSpaceOnUse" x1="0" y1="0" x2="106" y2="0" id="gradient8">
    <stop offset="0" stop-color="#cafeba" stop-opacity="1" />
    <stop offset="1" stop-color="#b8e7a9" stop-opacity="1" />
</linearGradient>
</defs>
<g fill="none" stroke="black" stroke-width="1" fill-rule="evenodd" stroke-linecap="square" stroke-linejoin="bevel" >

<g fill="none" stroke="#000000" stroke-opacity="1" stroke-width="1" stroke-linecap="square" stroke-linejoin="bevel" transform="matrix(1,0,0,1,0,0)"
font-family="Ubuntu" font-size="11.5" font-weight="400" font-style="normal" 
>
</g>

<g fill="none" stroke="#000000" stroke-opacity="1" stroke-width="1" stroke-linecap="square" stroke-linejoin="bevel" transform="matrix(1,0,0,1,0,0)"
font-family="Ubuntu" font-size="11.5" font-weight="400" font-style="normal" 
>
</g>

<g fill="none" stroke="#000000" stroke-opacity="1" stroke-width="1" stroke-linecap="square" stroke-linejoin="bevel" transform="matrix(1,0,0,1,470,385)"
font-family="Ubuntu" font-size="11.5" font-weight="400" font-style="normal" 
>
</g>

<g fill="#000000" fill-opacity="1" stroke="#000000" stroke-opacity="1" stroke-width="1" stroke-linecap="square" stroke-linejoin="bevel" transform="matrix(1,0,0,1,470,385)"
font-family="Ubuntu" font-size="11.5" font-weight="400" font-style="normal" 
>
<polyline fill="none" vector-effect="none" points="-315,-259 -315,-321 " />
<polyline fill="none" vector-effect="none" points="-320,-309 -315,-321 -310,-309 " />
</g>

<g fill="none" stroke="#000000" stroke-opacity="1" stroke-width="1" stroke-linecap="square" stroke-linejoin="bevel" transform="matrix(1,0,0,1,470,385)"
font-family="Ubuntu" font-size="11.5" font-weight="400" font-style="normal" 
>
</g>

<g fill="none" stroke="#000000" stroke-opacity="1" stroke-width="1" stroke-linecap="square" stroke-linejoin="bevel" transform="matrix(1,0,0,1,470,385)"
font-family="Ubuntu" font-size="11.5" font-weight="400" font-style="normal" 
>
</g>

<g fill="#000000" fill-opacity="1" stroke="#000000" stroke-opacity="1" stroke-width="1" stroke-linecap="square" stroke-linejoin="bevel" transform="matrix(1,0,0,1,470,385)"
font-family="Ubuntu" font-size="11.5" font-weight="400" font-style="normal" 
>
<polyline fill="none" vector-effect="none" points="-385,-129 -333,-211 " />
<polyline fill="none" vector-effect="none" points="-343.649,-203.544 -333,-211 -335.204,-198.188 " />
</g>

<g fill="none" stroke="#000000" stroke-opacity="1" stroke-width="1" stroke-linecap="square" stroke-linejoin="bevel" transform="matrix(1,0,0,1,470,385)"
font-family="Ubuntu" font-size="11.5" font-weight="400" font-style="normal" 
>
</g>

<g fill="none" stroke="#000000" stroke-opacity="1" stroke-width="1" stroke-linecap="square" stroke-linejoin="bevel" transform="matrix(1,0,0,1,470,385)"
font-family="Ubuntu" font-size="11.5" font-weight="400" font-style="normal" 
>
</g>

<g fill="#000000" fill-opacity="1" stroke="#000000" stroke-opacity="1" stroke-width="1" stroke-linecap="square" stroke-linejoin="bevel" transform="matrix(1,0,0,1,470,385)"
font-family="Ubuntu" font-size="11.5" font-weight="400" font-style="normal" 
>
<polyline fill="none" vector-effect="none" points="-245,-129 -296,-211 " />
<polyline fill="none" vector-effect="none" points="-293.908,-198.169 -296,-211 -285.417,-203.451 " />
</g>

<g fill="none" stroke="#000000" stroke-opacity="1" stroke-width="1" stroke-linecap="square" stroke-linejoin="bevel" transform="matrix(1,0,0,1,470,385)"
font-family="Ubuntu" font-size="11.5" font-weight="400" font-style="normal" 
>
</g>

<g fill="none" stroke="#000000" stroke-opacity="1" stroke-width="1" stroke-linecap="square" stroke-linejoin="bevel" transform="matrix(1,0,0,1,100,15)"
font-family="Ubuntu" font-size="11.5" font-weight="400" font-style="normal" 
>
</g>

<g fill="url(#gradient1)" stroke="#000000" stroke-opacity="1" stroke-width="1" stroke-linecap="square" stroke-linejoin="bevel" transform="matrix(1,0,0,1,100,15)"
font-family="DejaVu Sans Mono" font-size="12.7778" font-weight="400" font-style="normal" 
>
<path vector-effect="none" fill-rule="evenodd" d="M2,6.6 C2,4.05949 6.74578,2 12.6,2 L97.4,2 C103.254,2 108,4.05949 108,6.6 L108,43.4 C108,45.9405 103.254,48 97.4,48 L12.6,48 C6.74578,48 2,45.9405 2,43.4 L2,6.6"/>
</g>

<g fill="url(#gradient2)" stroke="#000000" stroke-opacity="1" stroke-width="1" stroke-linecap="square" stroke-linejoin="bevel" transform="matrix(1,0,0,1,103,28.5)"
font-family="DejaVu Sans Mono" font-size="12.7778" font-weight="400" font-style="normal" 
>
<text fill="#000000" fill-opacity="1" stroke="none" xml:space="preserve" x="4" y="16" font-family="DejaVu Sans Mono" font-size="12.7778" font-weight="400" font-style="normal" 
 >BuildContext</text>
</g>

<g fill="none" stroke="#000000" stroke-opacity="1" stroke-width="1" stroke-linecap="square" stroke-linejoin="bevel" transform="matrix(1,0,0,1,100,15)"
font-family="Ubuntu" font-size="11.5" font-weight="400" font-style="normal" 
>
</g>

<g fill="none" stroke="#000000" stroke-opacity="1" stroke-width="1" stroke-linecap="square" stroke-linejoin="bevel" transform="matrix(1,0,0,1,100,125)"
font-family="Ubuntu" font-size="11.5" font-weight="400" font-style="normal" 
>
</g>

<g fill="url(#gradient3)" stroke="#000000" stroke-opacity="1" stroke-width="1" stroke-linecap="square" stroke-linejoin="bevel" transform="matrix(1,0,0,1,100,125)"
font-family="DejaVu Sans Mono" font-size="12.7778" font-weight="400" font-style="normal" 
>
<path vector-effect="none" fill-rule="evenodd" d="M2,6.6 C2,4.05949 6.74578,2 12.6,2 L97.4,2 C103.254,2 108,4.05949 108,6.6 L108,43.4 C108,45.9405 103.254,48 97.4,48 L12.6,48 C6.74578,48 2,45.9405 2,43.4 L2,6.6"/>
</g>

<g fill="url(#gradient4)" stroke="#000000" stroke-opacity="1" stroke-width="1" stroke-linecap="square" stroke-linejoin="bevel" transform="matrix(1,0,0,1,103,131)"
font-family="DejaVu Sans Mono" font-size="12.7778" font-weight="400" font-style="normal" 
>
<text fill="#000000" fill-opacity="1" stroke="none" xml:space="preserve" x="36" y="16" font-family="DejaVu Sans Mono" font-size="12.7778" font-weight="400" font-style="normal" 
 >Task</text>
<text fill="#000000" fill-opacity="1" stroke="none" xml:space="preserve" x="20" y="31" font-family="DejaVu Sans Mono" font-size="12.7778" font-weight="400" font-style="normal" 
 >Producer</text>
</g>

<g fill="none" stroke="#000000" stroke-opacity="1" stroke-width="1" stroke-linecap="square" stroke-linejoin="bevel" transform="matrix(1,0,0,1,100,125)"
font-family="Ubuntu" font-size="11.5" font-weight="400" font-style="normal" 
>
</g>

<g fill="none" stroke="#000000" stroke-opacity="1" stroke-width="1" stroke-linecap="square" stroke-linejoin="bevel" transform="matrix(1,0,0,1,30,255)"
font-family="Ubuntu" font-size="11.5" font-weight="400" font-style="normal" 
>
</g>

<g fill="url(#gradient5)" stroke="#000000" stroke-opacity="1" stroke-width="1" stroke-linecap="square" stroke-linejoin="bevel" transform="matrix(1,0,0,1,30,255)"
font-family="DejaVu Sans Mono" font-size="12.7778" font-weight="400" font-style="normal" 
>
<path vector-effect="none" fill-rule="evenodd" d="M2,6.6 C2,4.05949 6.74578,2 12.6,2 L97.4,2 C103.254,2 108,4.05949 108,6.6 L108,43.4 C108,45.9405 103.254,48 97.4,48 L12.6,48 C6.74578,48 2,45.9405 2,43.4 L2,6.6"/>
</g>

<g fill="url(#gradient6)" stroke="#000000" stroke-opacity="1" stroke-width="1" stroke-linecap="square" stroke-linejoin="bevel" transform="matrix(1,0,0,1,33,261)"
font-family="DejaVu Sans Mono" font-size="12.7778" font-weight="400" font-style="normal" 
>
<text fill="#000000" fill-opacity="1" stroke="none" xml:space="preserve" x="36" y="16" font-family="DejaVu Sans Mono" font-size="12.7778" font-weight="400" font-style="normal" 
 >Task</text>
<text fill="#000000" fill-opacity="1" stroke="none" xml:space="preserve" x="12" y="31" font-family="DejaVu Sans Mono" font-size="12.7778" font-weight="400" font-style="normal" 
 >Consumer 1</text>
</g>

<g fill="none" stroke="#000000" stroke-opacity="1" stroke-width="1" stroke-linecap="square" stroke-linejoin="bevel" transform="matrix(1,0,0,1,30,255)"
font-family="Ubuntu" font-size="11.5" font-weight="400" font-style="normal" 
>
</g>

<g fill="none" stroke="#000000" stroke-opacity="1" stroke-width="1" stroke-linecap="square" stroke-linejoin="bevel" transform="matrix(1,0,0,1,170,255)"
font-family="Ubuntu" font-size="11.5" font-weight="400" font-style="normal" 
>
</g>

<g fill="url(#gradient7)" stroke="#000000" stroke-opacity="1" stroke-width="1" stroke-linecap="square" stroke-linejoin="bevel" transform="matrix(1,0,0,1,170,255)"
font-family="DejaVu Sans Mono" font-size="12.7778" font-weight="400" font-style="normal" 
>
<path vector-effect="none" fill-rule="evenodd" d="M2,6.6 C2,4.05949 6.74578,2 12.6,2 L97.4,2 C103.254,2 108,4.05949 108,6.6 L108,43.4 C108,45.9405 103.254,48 97.4,48 L12.6,48 C6.74578,48 2,45.9405 2,43.4 L2,6.6"/>
</g>

<g fill="url(#gradient8)" stroke="#000000" stroke-opacity="1" stroke-width="1" stroke-linecap="square" stroke-linejoin="bevel" transform="matrix(1,0,0,1,173,261)"
font-family="DejaVu Sans Mono" font-size="12.7778" font-weight="400" font-style="normal" 
>
<text fill="#000000" fill-opacity="1" stroke="none" xml:space="preserve" x="36" y="16" font-family="DejaVu Sans Mono" font-size="12.7778" font-weight="400" font-style="normal" 
 >Task</text>
<text fill="#000000" fill-opacity="1" stroke="none" xml:space="preserve" x="12" y="31" font-family="DejaVu Sans Mono" font-size="12.7778" font-weight="400" font-style="normal" 
 >Consumer n</text>
</g>

<g fill="none" stroke="#000000" stroke-opacity="1" stroke-width="1" stroke-linecap="square" stroke-linejoin="bevel" transform="matrix(1,0,0,1,170,255)"
font-family="Ubuntu" font-size="11.5" font-weight="400" font-style="normal" 
>
</g>

<g fill="none" stroke="#000000" stroke-opacity="1" stroke-width="1" stroke-linecap="square" stroke-linejoin="bevel" transform="matrix(1,0,0,1,158,77)"
font-family="Ubuntu" font-size="11.5" font-weight="400" font-style="normal" 
>
</g>

<g fill="none" stroke="#141312" stroke-opacity="1" stroke-width="1" stroke-linecap="square" stroke-linejoin="bevel" transform="matrix(1,0,0,1,161,80)"
font-family="Ubuntu" font-size="11.5" font-weight="400" font-style="normal" 
>
<text fill="#141312" fill-opacity="1" stroke="none" xml:space="preserve" x="19" y="16" font-family="DejaVu Sans Mono" font-size="12.7778" font-weight="400" font-style="normal" 
 >Get tasks to</text>
<text fill="#141312" fill-opacity="1" stroke="none" xml:space="preserve" x="39" y="31" font-family="DejaVu Sans Mono" font-size="12.7778" font-weight="400" font-style="normal" 
 >process</text>
</g>

<g fill="none" stroke="#000000" stroke-opacity="1" stroke-width="1" stroke-linecap="square" stroke-linejoin="bevel" transform="matrix(1,0,0,1,158,77)"
font-family="Ubuntu" font-size="11.5" font-weight="400" font-style="normal" 
>
</g>

<g fill="none" stroke="#000000" stroke-opacity="1" stroke-width="1" stroke-linecap="square" stroke-linejoin="bevel" transform="matrix(1,0,0,1,158,77)"
font-family="Ubuntu" font-size="11.5" font-weight="400" font-style="normal" 
>
</g>

<g fill="none" stroke="#000000" stroke-opacity="1" stroke-width="1" stroke-linecap="square" stroke-linejoin="bevel" transform="matrix(1,0,0,1,206,187)"
font-family="Ubuntu" font-size="11.5" font-weight="400" font-style="normal" 
>
</g>

<g fill="none" stroke="#141312" stroke-opacity="1" stroke-width="1" stroke-linecap="square" stroke-linejoin="bevel" transform="matrix(1,0,0,1,209,190)"
font-family="Ubuntu" font-size="11.5" font-weight="400" font-style="normal" 
>
<text fill="#141312" fill-opacity="1" stroke="none" xml:space="preserve" x="19" y="16" font-family="DejaVu Sans Mono" font-size="12.7778" font-weight="400" font-style="normal" 
 >Process</text>
<text fill="#141312" fill-opacity="1" stroke="none" xml:space="preserve" x="27" y="31" font-family="DejaVu Sans Mono" font-size="12.7778" font-weight="400" font-style="normal" 
 >tasks</text>
</g>

<g fill="none" stroke="#000000" stroke-opacity="1" stroke-width="1" stroke-linecap="square" stroke-linejoin="bevel" transform="matrix(1,0,0,1,206,187)"
font-family="Ubuntu" font-size="11.5" font-weight="400" font-style="normal" 
>
</g>

<g fill="none" stroke="#000000" stroke-opacity="1" stroke-width="1" stroke-linecap="square" stroke-linejoin="bevel" transform="matrix(1,0,0,1,206,187)"
font-family="Ubuntu" font-size="11.5" font-weight="400" font-style="normal" 
>
</g>

<g fill="none" stroke="#000000" stroke-opacity="1" stroke-width="1" stroke-linecap="square" stroke-linejoin="bevel" transform="matrix(1,0,0,1,15,189)"
font-family="Ubuntu" font-size="11.5" font-weight="400" font-style="normal" 
>
</g>

<g fill="none" stroke="#141312" stroke-opacity="1" stroke-width="1" stroke-linecap="square" stroke-linejoin="bevel" transform="matrix(1,0,0,1,18,192)"
font-family="Ubuntu" font-size="11.5" font-weight="400" font-style="normal" 
>
<text fill="#141312" fill-opacity="1" stroke="none" xml:space="preserve" x="19" y="16" font-family="DejaVu Sans Mono" font-size="12.7778" font-weight="400" font-style="normal" 
 >Process</text>
<text fill="#141312" fill-opacity="1" stroke="none" xml:space="preserve" x="27" y="31" font-family="DejaVu Sans Mono" font-size="12.7778" font-weight="400" font-style="normal" 
 >tasks</text>
</g>

<g fill="none" stroke="#000000" stroke-opacity="1" stroke-width="1" stroke-linecap="square" stroke-linejoin="bevel" transform="matrix(1,0,0,1,15,189)"
font-family="Ubuntu" font-size="11.5" font-weight="400" font-style="normal" 
>
</g>

<g fill="none" stroke="#000000" stroke-opacity="1" stroke-width="1" stroke-linecap="square" stroke-linejoin="bevel" transform="matrix(1,0,0,1,15,189)"
font-family="Ubuntu" font-size="11.5" font-weight="400" font-style="normal" 
>
</g>

<g fill="none" stroke="#000000" stroke-opacity="1" stroke-width="1" stroke-linecap="square" stroke-linejoin="bevel" transform="matrix(1,0,0,1,0,0)"
font-family="Ubuntu" font-size="11.5" font-weight="400" font-style="normal" 
>
</g>
</g>
</svg>
