<?xml version="1.0" encoding="UTF-8" standalone="no"?>
<svg width="197.402mm" height="139.424mm"
 viewBox="0 0 715 505"
 xmlns="http://www.w3.org/2000/svg" xmlns:xlink="http://www.w3.org/1999/xlink"  version="1.2" baseProfile="tiny">
<title>Semantik diagram</title>
<desc>Generated with Qt</desc>
<defs>
<linearGradient gradientUnits="userSpaceOnUse" x1="0" y1="0" x2="36" y2="0" id="gradient1">
    <stop offset="0" stop-color="#cafeba" stop-opacity="1" />
    <stop offset="1" stop-color="#b8e7a9" stop-opacity="1" />
</linearGradient>
<linearGradient gradientUnits="userSpaceOnUse" x1="0" y1="0" x2="36" y2="0" id="gradient2">
    <stop offset="0" stop-color="#cafeba" stop-opacity="1" />
    <stop offset="1" stop-color="#b8e7a9" stop-opacity="1" />
</linearGradient>
<linearGradient gradientUnits="userSpaceOnUse" x1="0" y1="0" x2="36" y2="0" id="gradient3">
    <stop offset="0" stop-color="#cafeba" stop-opacity="1" />
    <stop offset="1" stop-color="#b8e7a9" stop-opacity="1" />
</linearGradient>
<linearGradient gradientUnits="userSpaceOnUse" x1="0" y1="0" x2="196" y2="0" id="gradient4">
    <stop offset="0" stop-color="#cafeba" stop-opacity="1" />
    <stop offset="1" stop-color="#b8e7a9" stop-opacity="1" />
</linearGradient>
<linearGradient gradientUnits="userSpaceOnUse" x1="0" y1="0" x2="196" y2="0" id="gradient5">
    <stop offset="0" stop-color="#cafeba" stop-opacity="1" />
    <stop offset="1" stop-color="#b8e7a9" stop-opacity="1" />
</linearGradient>
<linearGradient gradientUnits="userSpaceOnUse" x1="0" y1="0" x2="196" y2="0" id="gradient6">
    <stop offset="0" stop-color="#cafeba" stop-opacity="1" />
    <stop offset="1" stop-color="#b8e7a9" stop-opacity="1" />
</linearGradient>
<linearGradient gradientUnits="userSpaceOnUse" x1="0" y1="0" x2="196" y2="0" id="gradient7">
    <stop offset="0" stop-color="#cafeba" stop-opacity="1" />
    <stop offset="1" stop-color="#b8e7a9" stop-opacity="1" />
</linearGradient>
<linearGradient gradientUnits="userSpaceOnUse" x1="0" y1="0" x2="196" y2="0" id="gradient8">
    <stop offset="0" stop-color="#cafeba" stop-opacity="1" />
    <stop offset="1" stop-color="#b8e7a9" stop-opacity="1" />
</linearGradient>
<linearGradient gradientUnits="userSpaceOnUse" x1="0" y1="0" x2="196" y2="0" id="gradient9">
    <stop offset="0" stop-color="#cafeba" stop-opacity="1" />
    <stop offset="1" stop-color="#b8e7a9" stop-opacity="1" />
</linearGradient>
</defs>
<g fill="none" stroke="black" stroke-width="1" fill-rule="evenodd" stroke-linecap="square" stroke-linejoin="bevel" >

<g fill="none" stroke="#000000" stroke-opacity="1" stroke-width="1" stroke-linecap="square" stroke-linejoin="bevel" transform="matrix(1,0,0,1,0,0)"
font-family="Ubuntu" font-size="11.5" font-weight="400" font-style="normal" 
>
</g>

<g fill="none" stroke="#000000" stroke-opacity="1" stroke-width="1" stroke-linecap="square" stroke-linejoin="bevel" transform="matrix(1,0,0,1,0,0)"
font-family="Ubuntu" font-size="11.5" font-weight="400" font-style="normal" 
>
</g>

<g fill="none" stroke="#000000" stroke-opacity="1" stroke-width="1" stroke-linecap="square" stroke-linejoin="bevel" transform="matrix(1,0,0,1,140,175)"
font-family="Ubuntu" font-size="11.5" font-weight="400" font-style="normal" 
>
</g>

<g fill="url(#gradient1)" stroke="#000000" stroke-opacity="1" stroke-width="1" stroke-linecap="square" stroke-linejoin="bevel" transform="matrix(1,0,0,1,140,175)"
font-family="Ubuntu" font-size="11.5" font-weight="400" font-style="normal" 
>
<path vector-effect="none" fill-rule="evenodd" d="M20,2 L38,20 L20,38 L2,20 L20,2"/>
</g>

<g fill="none" stroke="#000000" stroke-opacity="1" stroke-width="1" stroke-linecap="square" stroke-linejoin="bevel" transform="matrix(1,0,0,1,140,175)"
font-family="Ubuntu" font-size="11.5" font-weight="400" font-style="normal" 
>
</g>

<g fill="none" stroke="#000000" stroke-opacity="1" stroke-width="1" stroke-linecap="square" stroke-linejoin="bevel" transform="matrix(1,0,0,1,140,175)"
font-family="Ubuntu" font-size="11.5" font-weight="400" font-style="normal" 
>
</g>

<g fill="none" stroke="#000000" stroke-opacity="1" stroke-width="1" stroke-linecap="square" stroke-linejoin="bevel" transform="matrix(1,0,0,1,360,275)"
font-family="Ubuntu" font-size="11.5" font-weight="400" font-style="normal" 
>
</g>

<g fill="url(#gradient2)" stroke="#000000" stroke-opacity="1" stroke-width="1" stroke-linecap="square" stroke-linejoin="bevel" transform="matrix(1,0,0,1,360,275)"
font-family="Ubuntu" font-size="11.5" font-weight="400" font-style="normal" 
>
<path vector-effect="none" fill-rule="evenodd" d="M20,2 L38,20 L20,38 L2,20 L20,2"/>
</g>

<g fill="none" stroke="#000000" stroke-opacity="1" stroke-width="1" stroke-linecap="square" stroke-linejoin="bevel" transform="matrix(1,0,0,1,360,275)"
font-family="Ubuntu" font-size="11.5" font-weight="400" font-style="normal" 
>
</g>

<g fill="none" stroke="#000000" stroke-opacity="1" stroke-width="1" stroke-linecap="square" stroke-linejoin="bevel" transform="matrix(1,0,0,1,360,275)"
font-family="Ubuntu" font-size="11.5" font-weight="400" font-style="normal" 
>
</g>

<g fill="none" stroke="#000000" stroke-opacity="1" stroke-width="1" stroke-linecap="square" stroke-linejoin="bevel" transform="matrix(1,0,0,1,580,375)"
font-family="Ubuntu" font-size="11.5" font-weight="400" font-style="normal" 
>
</g>

<g fill="url(#gradient3)" stroke="#000000" stroke-opacity="1" stroke-width="1" stroke-linecap="square" stroke-linejoin="bevel" transform="matrix(1,0,0,1,580,375)"
font-family="Ubuntu" font-size="11.5" font-weight="400" font-style="normal" 
>
<path vector-effect="none" fill-rule="evenodd" d="M20,2 L38,20 L20,38 L2,20 L20,2"/>
</g>

<g fill="none" stroke="#000000" stroke-opacity="1" stroke-width="1" stroke-linecap="square" stroke-linejoin="bevel" transform="matrix(1,0,0,1,580,375)"
font-family="Ubuntu" font-size="11.5" font-weight="400" font-style="normal" 
>
</g>

<g fill="none" stroke="#000000" stroke-opacity="1" stroke-width="1" stroke-linecap="square" stroke-linejoin="bevel" transform="matrix(1,0,0,1,580,375)"
font-family="Ubuntu" font-size="11.5" font-weight="400" font-style="normal" 
>
</g>

<g fill="none" stroke="#000000" stroke-opacity="1" stroke-width="1" stroke-linecap="square" stroke-linejoin="bevel" transform="matrix(1,0,0,1,560,435)"
font-family="Ubuntu" font-size="11.5" font-weight="400" font-style="normal" 
>
</g>

<g fill="#000000" fill-opacity="1" stroke="#000000" stroke-opacity="1" stroke-width="1" stroke-linecap="square" stroke-linejoin="bevel" transform="matrix(1,0,0,1,560,435)"
font-family="Ubuntu" font-size="11.5" font-weight="400" font-style="normal" 
>
<polyline fill="none" vector-effect="none" points="-400,-401 -400,-359 " />
<polyline fill="none" vector-effect="none" points="-395,-371 -400,-359 -405,-371 " />
</g>

<g fill="none" stroke="#000000" stroke-opacity="1" stroke-width="1" stroke-linecap="square" stroke-linejoin="bevel" transform="matrix(1,0,0,1,560,435)"
font-family="Ubuntu" font-size="11.5" font-weight="400" font-style="normal" 
>
</g>

<g fill="none" stroke="#000000" stroke-opacity="1" stroke-width="1" stroke-linecap="square" stroke-linejoin="bevel" transform="matrix(1,0,0,1,560,435)"
font-family="Ubuntu" font-size="11.5" font-weight="400" font-style="normal" 
>
</g>

<g fill="#000000" fill-opacity="1" stroke="#000000" stroke-opacity="1" stroke-width="1" stroke-linecap="square" stroke-linejoin="bevel" transform="matrix(1,0,0,1,560,435)"
font-family="Ubuntu" font-size="11.5" font-weight="400" font-style="normal" 
>
<polyline fill="none" vector-effect="none" points="-400,-301 -400,-259 " />
<polyline fill="none" vector-effect="none" points="-395,-271 -400,-259 -405,-271 " />
</g>

<g fill="none" stroke="#000000" stroke-opacity="1" stroke-width="1" stroke-linecap="square" stroke-linejoin="bevel" transform="matrix(1,0,0,1,560,435)"
font-family="Ubuntu" font-size="11.5" font-weight="400" font-style="normal" 
>
</g>

<g fill="none" stroke="#000000" stroke-opacity="1" stroke-width="1" stroke-linecap="square" stroke-linejoin="bevel" transform="matrix(1,0,0,1,560,435)"
font-family="Ubuntu" font-size="11.5" font-weight="400" font-style="normal" 
>
</g>

<g fill="#000000" fill-opacity="1" stroke="#000000" stroke-opacity="1" stroke-width="1" stroke-linecap="square" stroke-linejoin="bevel" transform="matrix(1,0,0,1,560,435)"
font-family="Ubuntu" font-size="11.5" font-weight="400" font-style="normal" 
>
<polyline fill="none" vector-effect="none" points="-381,-240 -279,-240 " />
<polyline fill="none" vector-effect="none" points="-291,-245 -279,-240 -291,-235 " />
</g>

<g fill="none" stroke="#000000" stroke-opacity="1" stroke-width="1" stroke-linecap="square" stroke-linejoin="bevel" transform="matrix(1,0,0,1,560,435)"
font-family="Ubuntu" font-size="11.5" font-weight="400" font-style="normal" 
>
</g>

<g fill="none" stroke="#000000" stroke-opacity="1" stroke-width="1" stroke-linecap="square" stroke-linejoin="bevel" transform="matrix(1,0,0,1,560,435)"
font-family="Ubuntu" font-size="11.5" font-weight="400" font-style="normal" 
>
</g>

<g fill="#000000" fill-opacity="1" stroke="#000000" stroke-opacity="1" stroke-width="1" stroke-linecap="square" stroke-linejoin="bevel" transform="matrix(1,0,0,1,560,435)"
font-family="Ubuntu" font-size="11.5" font-weight="400" font-style="normal" 
>
<polyline fill="none" vector-effect="none" points="-180,-211 -180,-159 " />
<polyline fill="none" vector-effect="none" points="-175,-171 -180,-159 -185,-171 " />
</g>

<g fill="none" stroke="#000000" stroke-opacity="1" stroke-width="1" stroke-linecap="square" stroke-linejoin="bevel" transform="matrix(1,0,0,1,560,435)"
font-family="Ubuntu" font-size="11.5" font-weight="400" font-style="normal" 
>
</g>

<g fill="none" stroke="#000000" stroke-opacity="1" stroke-width="1" stroke-linecap="square" stroke-linejoin="bevel" transform="matrix(1,0,0,1,560,435)"
font-family="Ubuntu" font-size="11.5" font-weight="400" font-style="normal" 
>
</g>

<g fill="#000000" fill-opacity="1" stroke="#000000" stroke-opacity="1" stroke-width="1" stroke-linecap="square" stroke-linejoin="bevel" transform="matrix(1,0,0,1,560,435)"
font-family="Ubuntu" font-size="11.5" font-weight="400" font-style="normal" 
>
<polyline fill="none" vector-effect="none" points="-161,-140 -59,-140 " />
<polyline fill="none" vector-effect="none" points="-71,-145 -59,-140 -71,-135 " />
</g>

<g fill="none" stroke="#000000" stroke-opacity="1" stroke-width="1" stroke-linecap="square" stroke-linejoin="bevel" transform="matrix(1,0,0,1,560,435)"
font-family="Ubuntu" font-size="11.5" font-weight="400" font-style="normal" 
>
</g>

<g fill="none" stroke="#000000" stroke-opacity="1" stroke-width="1" stroke-linecap="square" stroke-linejoin="bevel" transform="matrix(1,0,0,1,560,435)"
font-family="Ubuntu" font-size="11.5" font-weight="400" font-style="normal" 
>
</g>

<g fill="#000000" fill-opacity="1" stroke="#000000" stroke-opacity="1" stroke-width="1" stroke-linecap="square" stroke-linejoin="bevel" transform="matrix(1,0,0,1,560,435)"
font-family="Ubuntu" font-size="11.5" font-weight="400" font-style="normal" 
>
<polyline fill="none" vector-effect="none" points="40,-111 40,-59 " />
<polyline fill="none" vector-effect="none" points="45,-71 40,-59 35,-71 " />
</g>

<g fill="none" stroke="#000000" stroke-opacity="1" stroke-width="1" stroke-linecap="square" stroke-linejoin="bevel" transform="matrix(1,0,0,1,560,435)"
font-family="Ubuntu" font-size="11.5" font-weight="400" font-style="normal" 
>
</g>

<g fill="none" stroke="#000000" stroke-opacity="1" stroke-width="1" stroke-linecap="square" stroke-linejoin="bevel" transform="matrix(1,0,0,1,560,435)"
font-family="Ubuntu" font-size="11.5" font-weight="400" font-style="normal" 
>
</g>

<g fill="#000000" fill-opacity="1" stroke="#000000" stroke-opacity="1" stroke-width="1" stroke-linecap="square" stroke-linejoin="bevel" transform="matrix(1,0,0,1,560,435)"
font-family="Ubuntu" font-size="11.5" font-weight="400" font-style="normal" 
>
<polyline fill="none" vector-effect="none" points="21,-40 -391,-40 " />
<polyline fill="none" vector-effect="none" points="-379,-35 -391,-40 -379,-45 " />
</g>

<g fill="none" stroke="#000000" stroke-opacity="1" stroke-width="1" stroke-linecap="square" stroke-linejoin="bevel" transform="matrix(1,0,0,1,560,435)"
font-family="Ubuntu" font-size="11.5" font-weight="400" font-style="normal" 
>
</g>

<g fill="none" stroke="#000000" stroke-opacity="1" stroke-width="1" stroke-linecap="square" stroke-linejoin="bevel" transform="matrix(1,0,0,1,560,435)"
font-family="Ubuntu" font-size="11.5" font-weight="400" font-style="normal" 
>
</g>

<g fill="#000000" fill-opacity="1" stroke="#000000" stroke-opacity="1" stroke-width="1" stroke-linecap="square" stroke-linejoin="bevel" transform="matrix(1,0,0,1,560,435)"
font-family="Ubuntu" font-size="11.5" font-weight="400" font-style="normal" 
>
<polyline fill="none" vector-effect="none" points="-400,-221 -400,-49 " />
<polyline fill="none" vector-effect="none" points="-395,-61 -400,-49 -405,-61 " />
</g>

<g fill="none" stroke="#000000" stroke-opacity="1" stroke-width="1" stroke-linecap="square" stroke-linejoin="bevel" transform="matrix(1,0,0,1,560,435)"
font-family="Ubuntu" font-size="11.5" font-weight="400" font-style="normal" 
>
</g>

<g fill="none" stroke="#000000" stroke-opacity="1" stroke-width="1" stroke-linecap="square" stroke-linejoin="bevel" transform="matrix(1,0,0,1,560,435)"
font-family="Ubuntu" font-size="11.5" font-weight="400" font-style="normal" 
>
</g>

<g fill="#000000" fill-opacity="1" stroke="#000000" stroke-opacity="1" stroke-width="1" stroke-linecap="square" stroke-linejoin="bevel" transform="matrix(1,0,0,1,560,435)"
font-family="Ubuntu" font-size="11.5" font-weight="400" font-style="normal" 
>
<polyline fill="none" vector-effect="none" points="-419,-240 -530,-240 " />
<polyline fill="none" vector-effect="none" points="-530,-240 -530,-330 " />
<polyline fill="none" vector-effect="none" points="-530,-330 -499,-330 " />
<polyline fill="none" vector-effect="none" points="-511,-335 -499,-330 -511,-325 " />
</g>

<g fill="none" stroke="#000000" stroke-opacity="1" stroke-width="1" stroke-linecap="square" stroke-linejoin="bevel" transform="matrix(1,0,0,1,560,435)"
font-family="Ubuntu" font-size="11.5" font-weight="400" font-style="normal" 
>
</g>

<g fill="none" stroke="#000000" stroke-opacity="1" stroke-width="1" stroke-linecap="square" stroke-linejoin="bevel" transform="matrix(1,0,0,1,560,435)"
font-family="Ubuntu" font-size="11.5" font-weight="400" font-style="normal" 
>
</g>

<g fill="#000000" fill-opacity="1" stroke="#000000" stroke-opacity="1" stroke-width="1" stroke-linecap="square" stroke-linejoin="bevel" transform="matrix(1,0,0,1,560,435)"
font-family="Ubuntu" font-size="11.5" font-weight="400" font-style="normal" 
>
<polyline fill="none" vector-effect="none" points="-199,-140 -400,-140 " />
<polyline fill="none" vector-effect="none" points="-400,-140 -400,-49 " />
<polyline fill="none" vector-effect="none" points="-395,-61 -400,-49 -405,-61 " />
</g>

<g fill="none" stroke="#000000" stroke-opacity="1" stroke-width="1" stroke-linecap="square" stroke-linejoin="bevel" transform="matrix(1,0,0,1,560,435)"
font-family="Ubuntu" font-size="11.5" font-weight="400" font-style="normal" 
>
</g>

<g fill="none" stroke="#000000" stroke-opacity="1" stroke-width="1" stroke-linecap="square" stroke-linejoin="bevel" transform="matrix(1,0,0,1,560,435)"
font-family="Ubuntu" font-size="11.5" font-weight="400" font-style="normal" 
>
</g>

<g fill="#000000" fill-opacity="1" stroke="#000000" stroke-opacity="1" stroke-width="1" stroke-linecap="square" stroke-linejoin="bevel" transform="matrix(1,0,0,1,560,435)"
font-family="Ubuntu" font-size="11.5" font-weight="400" font-style="normal" 
>
<polyline fill="none" vector-effect="none" points="-180,-121 -180,-40 " />
<polyline fill="none" vector-effect="none" points="-180,-40 -391,-40 " />
<polyline fill="none" vector-effect="none" points="-379,-35 -391,-40 -379,-45 " />
</g>

<g fill="none" stroke="#000000" stroke-opacity="1" stroke-width="1" stroke-linecap="square" stroke-linejoin="bevel" transform="matrix(1,0,0,1,560,435)"
font-family="Ubuntu" font-size="11.5" font-weight="400" font-style="normal" 
>
</g>

<g fill="none" stroke="#000000" stroke-opacity="1" stroke-width="1" stroke-linecap="square" stroke-linejoin="bevel" transform="matrix(1,0,0,1,560,435)"
font-family="Ubuntu" font-size="11.5" font-weight="400" font-style="normal" 
>
</g>

<g fill="#000000" fill-opacity="1" stroke="#000000" stroke-opacity="1" stroke-width="1" stroke-linecap="square" stroke-linejoin="bevel" transform="matrix(1,0,0,1,560,435)"
font-family="Ubuntu" font-size="11.5" font-weight="400" font-style="normal" 
>
<polyline fill="none" vector-effect="none" points="40,-21 40,40 " />
<polyline fill="none" vector-effect="none" points="40,40 -400,40 " />
<polyline fill="none" vector-effect="none" points="-400,40 -400,-31 " />
<polyline fill="none" vector-effect="none" points="-405,-19 -400,-31 -395,-19 " />
</g>

<g fill="none" stroke="#000000" stroke-opacity="1" stroke-width="1" stroke-linecap="square" stroke-linejoin="bevel" transform="matrix(1,0,0,1,560,435)"
font-family="Ubuntu" font-size="11.5" font-weight="400" font-style="normal" 
>
</g>

<g fill="none" stroke="#000000" stroke-opacity="1" stroke-width="1" stroke-linecap="square" stroke-linejoin="bevel" transform="matrix(1,0,0,1,500,449)"
font-family="Ubuntu" font-size="11.5" font-weight="400" font-style="normal" 
>
</g>

<g fill="none" stroke="#141312" stroke-opacity="1" stroke-width="1" stroke-linecap="square" stroke-linejoin="bevel" transform="matrix(1,0,0,1,503,452)"
font-family="Ubuntu" font-size="11.5" font-weight="400" font-style="normal" 
>
<text fill="#141312" fill-opacity="1" stroke="none" xml:space="preserve" x="9" y="16" font-family="DejaVu Sans Mono" font-size="12.7778" font-weight="400" font-style="normal" 
 >SUCCESS</text>
</g>

<g fill="none" stroke="#000000" stroke-opacity="1" stroke-width="1" stroke-linecap="square" stroke-linejoin="bevel" transform="matrix(1,0,0,1,500,449)"
font-family="Ubuntu" font-size="11.5" font-weight="400" font-style="normal" 
>
</g>

<g fill="none" stroke="#000000" stroke-opacity="1" stroke-width="1" stroke-linecap="square" stroke-linejoin="bevel" transform="matrix(1,0,0,1,500,449)"
font-family="Ubuntu" font-size="11.5" font-weight="400" font-style="normal" 
>
</g>

<g fill="none" stroke="#000000" stroke-opacity="1" stroke-width="1" stroke-linecap="square" stroke-linejoin="bevel" transform="matrix(1,0,0,1,60,75)"
font-family="Ubuntu" font-size="11.5" font-weight="400" font-style="normal" 
>
</g>

<g fill="url(#gradient4)" stroke="#000000" stroke-opacity="1" stroke-width="1" stroke-linecap="square" stroke-linejoin="bevel" transform="matrix(1,0,0,1,60,75)"
font-family="DejaVu Sans Mono" font-size="12.7778" font-weight="400" font-style="normal" 
>
<path vector-effect="none" fill-rule="evenodd" d="M2,7.6 C2,4.50721 10.7752,2 21.6,2 L178.4,2 C189.225,2 198,4.50721 198,7.6 L198,52.4 C198,55.4928 189.225,58 178.4,58 L21.6,58 C10.7752,58 2,55.4928 2,52.4 L2,7.6"/>
</g>

<g fill="url(#gradient5)" stroke="#000000" stroke-opacity="1" stroke-width="1" stroke-linecap="square" stroke-linejoin="bevel" transform="matrix(1,0,0,1,63,86)"
font-family="DejaVu Sans Mono" font-size="12.7778" font-weight="400" font-style="normal" 
>
<text fill="#000000" fill-opacity="1" stroke="none" xml:space="preserve" x="5" y="16" font-family="DejaVu Sans Mono" font-size="12.7778" font-weight="400" font-style="normal" 
 >Compute the task status</text>
<text fill="#000000" fill-opacity="1" stroke="none" xml:space="preserve" x="29" y="31" font-family="DejaVu Sans Mono" font-size="12.7778" font-weight="400" font-style="normal" 
 >(runnable_status)</text>
</g>

<g fill="none" stroke="#000000" stroke-opacity="1" stroke-width="1" stroke-linecap="square" stroke-linejoin="bevel" transform="matrix(1,0,0,1,60,75)"
font-family="Ubuntu" font-size="11.5" font-weight="400" font-style="normal" 
>
</g>

<g fill="none" stroke="#000000" stroke-opacity="1" stroke-width="1" stroke-linecap="square" stroke-linejoin="bevel" transform="matrix(1,0,0,1,280,165)"
font-family="Ubuntu" font-size="11.5" font-weight="400" font-style="normal" 
>
</g>

<g fill="url(#gradient6)" stroke="#000000" stroke-opacity="1" stroke-width="1" stroke-linecap="square" stroke-linejoin="bevel" transform="matrix(1,0,0,1,280,165)"
font-family="DejaVu Sans Mono" font-size="12.7778" font-weight="400" font-style="normal" 
>
<path vector-effect="none" fill-rule="evenodd" d="M2,7.6 C2,4.50721 10.7752,2 21.6,2 L178.4,2 C189.225,2 198,4.50721 198,7.6 L198,52.4 C198,55.4928 189.225,58 178.4,58 L21.6,58 C10.7752,58 2,55.4928 2,52.4 L2,7.6"/>
</g>

<g fill="url(#gradient7)" stroke="#000000" stroke-opacity="1" stroke-width="1" stroke-linecap="square" stroke-linejoin="bevel" transform="matrix(1,0,0,1,283,183.5)"
font-family="DejaVu Sans Mono" font-size="12.7778" font-weight="400" font-style="normal" 
>
<text fill="#000000" fill-opacity="1" stroke="none" xml:space="preserve" x="9" y="16" font-family="DejaVu Sans Mono" font-size="12.7778" font-weight="400" font-style="normal" 
 >Execute the task (run)</text>
</g>

<g fill="none" stroke="#000000" stroke-opacity="1" stroke-width="1" stroke-linecap="square" stroke-linejoin="bevel" transform="matrix(1,0,0,1,280,165)"
font-family="Ubuntu" font-size="11.5" font-weight="400" font-style="normal" 
>
</g>

<g fill="none" stroke="#000000" stroke-opacity="1" stroke-width="1" stroke-linecap="square" stroke-linejoin="bevel" transform="matrix(1,0,0,1,500,265)"
font-family="Ubuntu" font-size="11.5" font-weight="400" font-style="normal" 
>
</g>

<g fill="url(#gradient8)" stroke="#000000" stroke-opacity="1" stroke-width="1" stroke-linecap="square" stroke-linejoin="bevel" transform="matrix(1,0,0,1,500,265)"
font-family="DejaVu Sans Mono" font-size="12.7778" font-weight="400" font-style="normal" 
>
<path vector-effect="none" fill-rule="evenodd" d="M2,7.6 C2,4.50721 10.7752,2 21.6,2 L178.4,2 C189.225,2 198,4.50721 198,7.6 L198,52.4 C198,55.4928 189.225,58 178.4,58 L21.6,58 C10.7752,58 2,55.4928 2,52.4 L2,7.6"/>
</g>

<g fill="url(#gradient9)" stroke="#000000" stroke-opacity="1" stroke-width="1" stroke-linecap="square" stroke-linejoin="bevel" transform="matrix(1,0,0,1,503,268.5)"
font-family="DejaVu Sans Mono" font-size="12.7778" font-weight="400" font-style="normal" 
>
<text fill="#000000" fill-opacity="1" stroke="none" xml:space="preserve" x="25" y="16" font-family="DejaVu Sans Mono" font-size="12.7778" font-weight="400" font-style="normal" 
 >Perform additional</text>
<text fill="#000000" fill-opacity="1" stroke="none" xml:space="preserve" x="45" y="31" font-family="DejaVu Sans Mono" font-size="12.7778" font-weight="400" font-style="normal" 
 >verifications</text>
<text fill="#000000" fill-opacity="1" stroke="none" xml:space="preserve" x="57" y="46" font-family="DejaVu Sans Mono" font-size="12.7778" font-weight="400" font-style="normal" 
 >(post_run)</text>
</g>

<g fill="none" stroke="#000000" stroke-opacity="1" stroke-width="1" stroke-linecap="square" stroke-linejoin="bevel" transform="matrix(1,0,0,1,500,265)"
font-family="Ubuntu" font-size="11.5" font-weight="400" font-style="normal" 
>
</g>

<g fill="none" stroke="#000000" stroke-opacity="1" stroke-width="1" stroke-linecap="square" stroke-linejoin="bevel" transform="matrix(1,0,0,1,150,15)"
font-family="Ubuntu" font-size="11.5" font-weight="400" font-style="normal" 
>
</g>

<g fill="#000000" fill-opacity="1" stroke="#000000" stroke-opacity="1" stroke-width="1" stroke-linecap="square" stroke-linejoin="bevel" transform="matrix(1,0,0,1,150,15)"
font-family="Ubuntu" font-size="11.5" font-weight="400" font-style="normal" 
>
<path vector-effect="none" fill-rule="evenodd" d="M18,10 C18,14.4183 14.4183,18 10,18 C5.58172,18 2,14.4183 2,10 C2,5.58172 5.58172,2 10,2 C14.4183,2 18,5.58172 18,10 "/>
</g>

<g fill="none" stroke="#000000" stroke-opacity="1" stroke-width="1" stroke-linecap="square" stroke-linejoin="bevel" transform="matrix(1,0,0,1,150,15)"
font-family="Ubuntu" font-size="11.5" font-weight="400" font-style="normal" 
>
</g>

<g fill="none" stroke="#000000" stroke-opacity="1" stroke-width="1" stroke-linecap="square" stroke-linejoin="bevel" transform="matrix(1,0,0,1,150,15)"
font-family="Ubuntu" font-size="11.5" font-weight="400" font-style="normal" 
>
</g>

<g fill="none" stroke="#000000" stroke-opacity="1" stroke-width="1" stroke-linecap="square" stroke-linejoin="bevel" transform="matrix(1,0,0,1,150,385)"
font-family="Ubuntu" font-size="11.5" font-weight="400" font-style="normal" 
>
</g>

<g fill="none" stroke="#000000" stroke-opacity="1" stroke-width="1" stroke-linecap="square" stroke-linejoin="bevel" transform="matrix(1,0,0,1,150,385)"
font-family="Ubuntu" font-size="11.5" font-weight="400" font-style="normal" 
>
<path vector-effect="none" fill-rule="evenodd" d="M18,10 C18,14.4183 14.4183,18 10,18 C5.58172,18 2,14.4183 2,10 C2,5.58172 5.58172,2 10,2 C14.4183,2 18,5.58172 18,10 "/>
</g>

<g fill="#000000" fill-opacity="1" stroke="#000000" stroke-opacity="1" stroke-width="1" stroke-linecap="square" stroke-linejoin="bevel" transform="matrix(1,0,0,1,150,385)"
font-family="Ubuntu" font-size="11.5" font-weight="400" font-style="normal" 
>
<path vector-effect="none" fill-rule="evenodd" d="M15,10 C15,12.7614 12.7614,15 10,15 C7.23858,15 5,12.7614 5,10 C5,7.23858 7.23858,5 10,5 C12.7614,5 15,7.23858 15,10 "/>
</g>

<g fill="none" stroke="#000000" stroke-opacity="1" stroke-width="1" stroke-linecap="square" stroke-linejoin="bevel" transform="matrix(1,0,0,1,150,385)"
font-family="Ubuntu" font-size="11.5" font-weight="400" font-style="normal" 
>
</g>

<g fill="none" stroke="#000000" stroke-opacity="1" stroke-width="1" stroke-linecap="square" stroke-linejoin="bevel" transform="matrix(1,0,0,1,150,385)"
font-family="Ubuntu" font-size="11.5" font-weight="400" font-style="normal" 
>
</g>

<g fill="none" stroke="#000000" stroke-opacity="1" stroke-width="1" stroke-linecap="square" stroke-linejoin="bevel" transform="matrix(1,0,0,1,30,197)"
font-family="Ubuntu" font-size="11.5" font-weight="400" font-style="normal" 
>
</g>

<g fill="none" stroke="#141312" stroke-opacity="1" stroke-width="1" stroke-linecap="square" stroke-linejoin="bevel" transform="matrix(1,0,0,1,33,200)"
font-family="Ubuntu" font-size="11.5" font-weight="400" font-style="normal" 
>
<text fill="#141312" fill-opacity="1" stroke="none" xml:space="preserve" x="6" y="16" font-family="DejaVu Sans Mono" font-size="12.7778" font-weight="400" font-style="normal" 
 >ASK_LATER</text>
</g>

<g fill="none" stroke="#000000" stroke-opacity="1" stroke-width="1" stroke-linecap="square" stroke-linejoin="bevel" transform="matrix(1,0,0,1,30,197)"
font-family="Ubuntu" font-size="11.5" font-weight="400" font-style="normal" 
>
</g>

<g fill="none" stroke="#000000" stroke-opacity="1" stroke-width="1" stroke-linecap="square" stroke-linejoin="bevel" transform="matrix(1,0,0,1,30,197)"
font-family="Ubuntu" font-size="11.5" font-weight="400" font-style="normal" 
>
</g>

<g fill="none" stroke="#000000" stroke-opacity="1" stroke-width="1" stroke-linecap="square" stroke-linejoin="bevel" transform="matrix(1,0,0,1,171,166)"
font-family="Ubuntu" font-size="11.5" font-weight="400" font-style="normal" 
>
</g>

<g fill="none" stroke="#141312" stroke-opacity="1" stroke-width="1" stroke-linecap="square" stroke-linejoin="bevel" transform="matrix(1,0,0,1,174,169)"
font-family="Ubuntu" font-size="11.5" font-weight="400" font-style="normal" 
>
<text fill="#141312" fill-opacity="1" stroke="none" xml:space="preserve" x="13" y="16" font-family="DejaVu Sans Mono" font-size="12.7778" font-weight="400" font-style="normal" 
 >RUN_ME</text>
</g>

<g fill="none" stroke="#000000" stroke-opacity="1" stroke-width="1" stroke-linecap="square" stroke-linejoin="bevel" transform="matrix(1,0,0,1,171,166)"
font-family="Ubuntu" font-size="11.5" font-weight="400" font-style="normal" 
>
</g>

<g fill="none" stroke="#000000" stroke-opacity="1" stroke-width="1" stroke-linecap="square" stroke-linejoin="bevel" transform="matrix(1,0,0,1,171,166)"
font-family="Ubuntu" font-size="11.5" font-weight="400" font-style="normal" 
>
</g>

<g fill="none" stroke="#000000" stroke-opacity="1" stroke-width="1" stroke-linecap="square" stroke-linejoin="bevel" transform="matrix(1,0,0,1,155,205)"
font-family="Ubuntu" font-size="11.5" font-weight="400" font-style="normal" 
>
</g>

<g fill="none" stroke="#141312" stroke-opacity="1" stroke-width="1" stroke-linecap="square" stroke-linejoin="bevel" transform="matrix(1,0,0,1,158,208)"
font-family="Ubuntu" font-size="11.5" font-weight="400" font-style="normal" 
>
<text fill="#141312" fill-opacity="1" stroke="none" xml:space="preserve" x="9" y="16" font-family="DejaVu Sans Mono" font-size="12.7778" font-weight="400" font-style="normal" 
 >SKIP_ME</text>
</g>

<g fill="none" stroke="#000000" stroke-opacity="1" stroke-width="1" stroke-linecap="square" stroke-linejoin="bevel" transform="matrix(1,0,0,1,155,205)"
font-family="Ubuntu" font-size="11.5" font-weight="400" font-style="normal" 
>
</g>

<g fill="none" stroke="#000000" stroke-opacity="1" stroke-width="1" stroke-linecap="square" stroke-linejoin="bevel" transform="matrix(1,0,0,1,155,205)"
font-family="Ubuntu" font-size="11.5" font-weight="400" font-style="normal" 
>
</g>

<g fill="none" stroke="#000000" stroke-opacity="1" stroke-width="1" stroke-linecap="square" stroke-linejoin="bevel" transform="matrix(1,0,0,1,274,319)"
font-family="Ubuntu" font-size="11.5" font-weight="400" font-style="normal" 
>
</g>

<g fill="none" stroke="#141312" stroke-opacity="1" stroke-width="1" stroke-linecap="square" stroke-linejoin="bevel" transform="matrix(1,0,0,1,277,322)"
font-family="Ubuntu" font-size="11.5" font-weight="400" font-style="normal" 
>
<text fill="#141312" fill-opacity="1" stroke="none" xml:space="preserve" x="20" y="16" font-family="DejaVu Sans Mono" font-size="12.7778" font-weight="400" font-style="normal" 
 >CRASHED:</text>
<text fill="#141312" fill-opacity="1" stroke="none" xml:space="preserve" x="20" y="31" font-family="DejaVu Sans Mono" font-size="12.7778" font-weight="400" font-style="normal" 
 >non-zero</text>
<text fill="#141312" fill-opacity="1" stroke="none" xml:space="preserve" x="8" y="46" font-family="DejaVu Sans Mono" font-size="12.7778" font-weight="400" font-style="normal" 
 >exit status</text>
</g>

<g fill="none" stroke="#000000" stroke-opacity="1" stroke-width="1" stroke-linecap="square" stroke-linejoin="bevel" transform="matrix(1,0,0,1,274,319)"
font-family="Ubuntu" font-size="11.5" font-weight="400" font-style="normal" 
>
</g>

<g fill="none" stroke="#000000" stroke-opacity="1" stroke-width="1" stroke-linecap="square" stroke-linejoin="bevel" transform="matrix(1,0,0,1,274,319)"
font-family="Ubuntu" font-size="11.5" font-weight="400" font-style="normal" 
>
</g>

<g fill="none" stroke="#000000" stroke-opacity="1" stroke-width="1" stroke-linecap="square" stroke-linejoin="bevel" transform="matrix(1,0,0,1,243,253)"
font-family="Ubuntu" font-size="11.5" font-weight="400" font-style="normal" 
>
</g>

<g fill="none" stroke="#141312" stroke-opacity="1" stroke-width="1" stroke-linecap="square" stroke-linejoin="bevel" transform="matrix(1,0,0,1,246,256)"
font-family="Ubuntu" font-size="11.5" font-weight="400" font-style="normal" 
>
<text fill="#141312" fill-opacity="1" stroke="none" xml:space="preserve" x="17" y="16" font-family="DejaVu Sans Mono" font-size="12.7778" font-weight="400" font-style="normal" 
 >EXCEPTION:</text>
<text fill="#141312" fill-opacity="1" stroke="none" xml:space="preserve" x="9" y="31" font-family="DejaVu Sans Mono" font-size="12.7778" font-weight="400" font-style="normal" 
 >Python error</text>
</g>

<g fill="none" stroke="#000000" stroke-opacity="1" stroke-width="1" stroke-linecap="square" stroke-linejoin="bevel" transform="matrix(1,0,0,1,243,253)"
font-family="Ubuntu" font-size="11.5" font-weight="400" font-style="normal" 
>
</g>

<g fill="none" stroke="#000000" stroke-opacity="1" stroke-width="1" stroke-linecap="square" stroke-linejoin="bevel" transform="matrix(1,0,0,1,243,253)"
font-family="Ubuntu" font-size="11.5" font-weight="400" font-style="normal" 
>
</g>

<g fill="none" stroke="#000000" stroke-opacity="1" stroke-width="1" stroke-linecap="square" stroke-linejoin="bevel" transform="matrix(1,0,0,1,373,265)"
font-family="Ubuntu" font-size="11.5" font-weight="400" font-style="normal" 
>
</g>

<g fill="none" stroke="#141312" stroke-opacity="1" stroke-width="1" stroke-linecap="square" stroke-linejoin="bevel" transform="matrix(1,0,0,1,376,268)"
font-family="Ubuntu" font-size="11.5" font-weight="400" font-style="normal" 
>
<text fill="#141312" fill-opacity="1" stroke="none" xml:space="preserve" x="23" y="16" font-family="DejaVu Sans Mono" font-size="12.7778" font-weight="400" font-style="normal" 
 >?</text>
</g>

<g fill="none" stroke="#000000" stroke-opacity="1" stroke-width="1" stroke-linecap="square" stroke-linejoin="bevel" transform="matrix(1,0,0,1,373,265)"
font-family="Ubuntu" font-size="11.5" font-weight="400" font-style="normal" 
>
</g>

<g fill="none" stroke="#000000" stroke-opacity="1" stroke-width="1" stroke-linecap="square" stroke-linejoin="bevel" transform="matrix(1,0,0,1,373,265)"
font-family="Ubuntu" font-size="11.5" font-weight="400" font-style="normal" 
>
</g>

<g fill="none" stroke="#000000" stroke-opacity="1" stroke-width="1" stroke-linecap="square" stroke-linejoin="bevel" transform="matrix(1,0,0,1,434,369)"
font-family="Ubuntu" font-size="11.5" font-weight="400" font-style="normal" 
>
</g>

<g fill="none" stroke="#141312" stroke-opacity="1" stroke-width="1" stroke-linecap="square" stroke-linejoin="bevel" transform="matrix(1,0,0,1,437,372)"
font-family="Ubuntu" font-size="11.5" font-weight="400" font-style="normal" 
>
<text fill="#141312" fill-opacity="1" stroke="none" xml:space="preserve" x="4" y="16" font-family="DejaVu Sans Mono" font-size="12.7778" font-weight="400" font-style="normal" 
 >MISSING: no files</text>
</g>

<g fill="none" stroke="#000000" stroke-opacity="1" stroke-width="1" stroke-linecap="square" stroke-linejoin="bevel" transform="matrix(1,0,0,1,434,369)"
font-family="Ubuntu" font-size="11.5" font-weight="400" font-style="normal" 
>
</g>

<g fill="none" stroke="#000000" stroke-opacity="1" stroke-width="1" stroke-linecap="square" stroke-linejoin="bevel" transform="matrix(1,0,0,1,434,369)"
font-family="Ubuntu" font-size="11.5" font-weight="400" font-style="normal" 
>
</g>

<g fill="none" stroke="#000000" stroke-opacity="1" stroke-width="1" stroke-linecap="square" stroke-linejoin="bevel" transform="matrix(1,0,0,1,0,0)"
font-family="Ubuntu" font-size="11.5" font-weight="400" font-style="normal" 
>
</g>
</g>
</svg>
