<?xml version="1.0" encoding="UTF-8" standalone="no"?>
<svg width="124.239mm" height="133.902mm"
 viewBox="0 0 450 485"
 xmlns="http://www.w3.org/2000/svg" xmlns:xlink="http://www.w3.org/1999/xlink"  version="1.2" baseProfile="tiny">
<title>Semantik diagram</title>
<desc>Generated with Qt</desc>
<defs>
<linearGradient gradientUnits="userSpaceOnUse" x1="0" y1="0" x2="36" y2="0" id="gradient1">
    <stop offset="0" stop-color="#cafeba" stop-opacity="1" />
    <stop offset="1" stop-color="#b8e7a9" stop-opacity="1" />
</linearGradient>
<linearGradient gradientUnits="userSpaceOnUse" x1="0" y1="0" x2="36" y2="0" id="gradient2">
    <stop offset="0" stop-color="#cafeba" stop-opacity="1" />
    <stop offset="1" stop-color="#b8e7a9" stop-opacity="1" />
</linearGradient>
<linearGradient gradientUnits="userSpaceOnUse" x1="0" y1="0" x2="36" y2="0" id="gradient3">
    <stop offset="0" stop-color="#cafeba" stop-opacity="1" />
    <stop offset="1" stop-color="#b8e7a9" stop-opacity="1" />
</linearGradient>
<linearGradient gradientUnits="userSpaceOnUse" x1="0" y1="0" x2="36" y2="0" id="gradient4">
    <stop offset="0" stop-color="#cafeba" stop-opacity="1" />
    <stop offset="1" stop-color="#b8e7a9" stop-opacity="1" />
</linearGradient>
<linearGradient gradientUnits="userSpaceOnUse" x1="0" y1="0" x2="176" y2="0" id="gradient5">
    <stop offset="0" stop-color="#cafeba" stop-opacity="1" />
    <stop offset="1" stop-color="#b8e7a9" stop-opacity="1" />
</linearGradient>
<linearGradient gradientUnits="userSpaceOnUse" x1="0" y1="0" x2="176" y2="0" id="gradient6">
    <stop offset="0" stop-color="#cafeba" stop-opacity="1" />
    <stop offset="1" stop-color="#b8e7a9" stop-opacity="1" />
</linearGradient>
<linearGradient gradientUnits="userSpaceOnUse" x1="0" y1="0" x2="176" y2="0" id="gradient7">
    <stop offset="0" stop-color="#cafeba" stop-opacity="1" />
    <stop offset="1" stop-color="#b8e7a9" stop-opacity="1" />
</linearGradient>
<linearGradient gradientUnits="userSpaceOnUse" x1="0" y1="0" x2="176" y2="0" id="gradient8">
    <stop offset="0" stop-color="#cafeba" stop-opacity="1" />
    <stop offset="1" stop-color="#b8e7a9" stop-opacity="1" />
</linearGradient>
</defs>
<g fill="none" stroke="black" stroke-width="1" fill-rule="evenodd" stroke-linecap="square" stroke-linejoin="bevel" >

<g fill="none" stroke="#000000" stroke-opacity="1" stroke-width="1" stroke-linecap="square" stroke-linejoin="bevel" transform="matrix(1,0,0,1,0,0)"
font-family="Ubuntu" font-size="11.5" font-weight="400" font-style="normal" 
>
</g>

<g fill="none" stroke="#000000" stroke-opacity="1" stroke-width="1" stroke-linecap="square" stroke-linejoin="bevel" transform="matrix(1,0,0,1,0,0)"
font-family="Ubuntu" font-size="11.5" font-weight="400" font-style="normal" 
>
</g>

<g fill="none" stroke="#000000" stroke-opacity="1" stroke-width="1" stroke-linecap="square" stroke-linejoin="bevel" transform="matrix(1,0,0,1,240,55)"
font-family="Ubuntu" font-size="11.5" font-weight="400" font-style="normal" 
>
</g>

<g fill="url(#gradient1)" stroke="#000000" stroke-opacity="1" stroke-width="1" stroke-linecap="square" stroke-linejoin="bevel" transform="matrix(1,0,0,1,240,55)"
font-family="Ubuntu" font-size="11.5" font-weight="400" font-style="normal" 
>
<path vector-effect="none" fill-rule="evenodd" d="M20,2 L38,20 L20,38 L2,20 L20,2"/>
</g>

<g fill="none" stroke="#000000" stroke-opacity="1" stroke-width="1" stroke-linecap="square" stroke-linejoin="bevel" transform="matrix(1,0,0,1,240,55)"
font-family="Ubuntu" font-size="11.5" font-weight="400" font-style="normal" 
>
</g>

<g fill="none" stroke="#000000" stroke-opacity="1" stroke-width="1" stroke-linecap="square" stroke-linejoin="bevel" transform="matrix(1,0,0,1,240,55)"
font-family="Ubuntu" font-size="11.5" font-weight="400" font-style="normal" 
>
</g>

<g fill="none" stroke="#000000" stroke-opacity="1" stroke-width="1" stroke-linecap="square" stroke-linejoin="bevel" transform="matrix(1,0,0,1,240,115)"
font-family="Ubuntu" font-size="11.5" font-weight="400" font-style="normal" 
>
</g>

<g fill="url(#gradient2)" stroke="#000000" stroke-opacity="1" stroke-width="1" stroke-linecap="square" stroke-linejoin="bevel" transform="matrix(1,0,0,1,240,115)"
font-family="Ubuntu" font-size="11.5" font-weight="400" font-style="normal" 
>
<path vector-effect="none" fill-rule="evenodd" d="M20,2 L38,20 L20,38 L2,20 L20,2"/>
</g>

<g fill="none" stroke="#000000" stroke-opacity="1" stroke-width="1" stroke-linecap="square" stroke-linejoin="bevel" transform="matrix(1,0,0,1,240,115)"
font-family="Ubuntu" font-size="11.5" font-weight="400" font-style="normal" 
>
</g>

<g fill="none" stroke="#000000" stroke-opacity="1" stroke-width="1" stroke-linecap="square" stroke-linejoin="bevel" transform="matrix(1,0,0,1,240,115)"
font-family="Ubuntu" font-size="11.5" font-weight="400" font-style="normal" 
>
</g>

<g fill="none" stroke="#000000" stroke-opacity="1" stroke-width="1" stroke-linecap="square" stroke-linejoin="bevel" transform="matrix(1,0,0,1,240,175)"
font-family="Ubuntu" font-size="11.5" font-weight="400" font-style="normal" 
>
</g>

<g fill="url(#gradient3)" stroke="#000000" stroke-opacity="1" stroke-width="1" stroke-linecap="square" stroke-linejoin="bevel" transform="matrix(1,0,0,1,240,175)"
font-family="Ubuntu" font-size="11.5" font-weight="400" font-style="normal" 
>
<path vector-effect="none" fill-rule="evenodd" d="M20,2 L38,20 L20,38 L2,20 L20,2"/>
</g>

<g fill="none" stroke="#000000" stroke-opacity="1" stroke-width="1" stroke-linecap="square" stroke-linejoin="bevel" transform="matrix(1,0,0,1,240,175)"
font-family="Ubuntu" font-size="11.5" font-weight="400" font-style="normal" 
>
</g>

<g fill="none" stroke="#000000" stroke-opacity="1" stroke-width="1" stroke-linecap="square" stroke-linejoin="bevel" transform="matrix(1,0,0,1,240,175)"
font-family="Ubuntu" font-size="11.5" font-weight="400" font-style="normal" 
>
</g>

<g fill="none" stroke="#000000" stroke-opacity="1" stroke-width="1" stroke-linecap="square" stroke-linejoin="bevel" transform="matrix(1,0,0,1,240,305)"
font-family="Ubuntu" font-size="11.5" font-weight="400" font-style="normal" 
>
</g>

<g fill="url(#gradient4)" stroke="#000000" stroke-opacity="1" stroke-width="1" stroke-linecap="square" stroke-linejoin="bevel" transform="matrix(1,0,0,1,240,305)"
font-family="Ubuntu" font-size="11.5" font-weight="400" font-style="normal" 
>
<path vector-effect="none" fill-rule="evenodd" d="M20,2 L38,20 L20,38 L2,20 L20,2"/>
</g>

<g fill="none" stroke="#000000" stroke-opacity="1" stroke-width="1" stroke-linecap="square" stroke-linejoin="bevel" transform="matrix(1,0,0,1,240,305)"
font-family="Ubuntu" font-size="11.5" font-weight="400" font-style="normal" 
>
</g>

<g fill="none" stroke="#000000" stroke-opacity="1" stroke-width="1" stroke-linecap="square" stroke-linejoin="bevel" transform="matrix(1,0,0,1,240,305)"
font-family="Ubuntu" font-size="11.5" font-weight="400" font-style="normal" 
>
</g>

<g fill="none" stroke="#000000" stroke-opacity="1" stroke-width="1" stroke-linecap="square" stroke-linejoin="bevel" transform="matrix(1,0,0,1,450,455)"
font-family="Ubuntu" font-size="11.5" font-weight="400" font-style="normal" 
>
</g>

<g fill="#000000" fill-opacity="1" stroke="#000000" stroke-opacity="1" stroke-width="1" stroke-linecap="square" stroke-linejoin="bevel" transform="matrix(1,0,0,1,450,455)"
font-family="Ubuntu" font-size="11.5" font-weight="400" font-style="normal" 
>
<polyline fill="none" vector-effect="none" points="-190,-171 -190,-149 " />
<polyline fill="none" vector-effect="none" points="-185,-161 -190,-149 -195,-161 " />
</g>

<g fill="none" stroke="#000000" stroke-opacity="1" stroke-width="1" stroke-linecap="square" stroke-linejoin="bevel" transform="matrix(1,0,0,1,450,455)"
font-family="Ubuntu" font-size="11.5" font-weight="400" font-style="normal" 
>
</g>

<g fill="none" stroke="#000000" stroke-opacity="1" stroke-width="1" stroke-linecap="square" stroke-linejoin="bevel" transform="matrix(1,0,0,1,450,455)"
font-family="Ubuntu" font-size="11.5" font-weight="400" font-style="normal" 
>
</g>

<g fill="#000000" fill-opacity="1" stroke="#000000" stroke-opacity="1" stroke-width="1" stroke-linecap="square" stroke-linejoin="bevel" transform="matrix(1,0,0,1,450,455)"
font-family="Ubuntu" font-size="11.5" font-weight="400" font-style="normal" 
>
<polyline fill="none" vector-effect="none" points="-190,-301 -190,-279 " />
<polyline fill="none" vector-effect="none" points="-185,-291 -190,-279 -195,-291 " />
</g>

<g fill="none" stroke="#000000" stroke-opacity="1" stroke-width="1" stroke-linecap="square" stroke-linejoin="bevel" transform="matrix(1,0,0,1,450,455)"
font-family="Ubuntu" font-size="11.5" font-weight="400" font-style="normal" 
>
</g>

<g fill="none" stroke="#000000" stroke-opacity="1" stroke-width="1" stroke-linecap="square" stroke-linejoin="bevel" transform="matrix(1,0,0,1,450,455)"
font-family="Ubuntu" font-size="11.5" font-weight="400" font-style="normal" 
>
</g>

<g fill="#000000" fill-opacity="1" stroke="#000000" stroke-opacity="1" stroke-width="1" stroke-linecap="square" stroke-linejoin="bevel" transform="matrix(1,0,0,1,450,455)"
font-family="Ubuntu" font-size="11.5" font-weight="400" font-style="normal" 
>
<polyline fill="none" vector-effect="none" points="-190,-361 -190,-339 " />
<polyline fill="none" vector-effect="none" points="-185,-351 -190,-339 -195,-351 " />
</g>

<g fill="none" stroke="#000000" stroke-opacity="1" stroke-width="1" stroke-linecap="square" stroke-linejoin="bevel" transform="matrix(1,0,0,1,450,455)"
font-family="Ubuntu" font-size="11.5" font-weight="400" font-style="normal" 
>
</g>

<g fill="none" stroke="#000000" stroke-opacity="1" stroke-width="1" stroke-linecap="square" stroke-linejoin="bevel" transform="matrix(1,0,0,1,450,455)"
font-family="Ubuntu" font-size="11.5" font-weight="400" font-style="normal" 
>
</g>

<g fill="#000000" fill-opacity="1" stroke="#000000" stroke-opacity="1" stroke-width="1" stroke-linecap="square" stroke-linejoin="bevel" transform="matrix(1,0,0,1,450,455)"
font-family="Ubuntu" font-size="11.5" font-weight="400" font-style="normal" 
>
<polyline fill="none" vector-effect="none" points="-190,-421 -190,-399 " />
<polyline fill="none" vector-effect="none" points="-185,-411 -190,-399 -195,-411 " />
</g>

<g fill="none" stroke="#000000" stroke-opacity="1" stroke-width="1" stroke-linecap="square" stroke-linejoin="bevel" transform="matrix(1,0,0,1,450,455)"
font-family="Ubuntu" font-size="11.5" font-weight="400" font-style="normal" 
>
</g>

<g fill="none" stroke="#000000" stroke-opacity="1" stroke-width="1" stroke-linecap="square" stroke-linejoin="bevel" transform="matrix(1,0,0,1,450,455)"
font-family="Ubuntu" font-size="11.5" font-weight="400" font-style="normal" 
>
</g>

<g fill="#000000" fill-opacity="1" stroke="#000000" stroke-opacity="1" stroke-width="1" stroke-linecap="square" stroke-linejoin="bevel" transform="matrix(1,0,0,1,450,455)"
font-family="Ubuntu" font-size="11.5" font-weight="400" font-style="normal" 
>
<polyline fill="none" vector-effect="none" points="-171,-380 -30,-380 " />
<polyline fill="none" vector-effect="none" points="-30,-380 -30,0 " />
<polyline fill="none" vector-effect="none" points="-30,0 -181,0 " />
<polyline fill="none" vector-effect="none" points="-169,5 -181,0 -169,-5 " />
</g>

<g fill="none" stroke="#000000" stroke-opacity="1" stroke-width="1" stroke-linecap="square" stroke-linejoin="bevel" transform="matrix(1,0,0,1,450,455)"
font-family="Ubuntu" font-size="11.5" font-weight="400" font-style="normal" 
>
</g>

<g fill="none" stroke="#000000" stroke-opacity="1" stroke-width="1" stroke-linecap="square" stroke-linejoin="bevel" transform="matrix(1,0,0,1,450,455)"
font-family="Ubuntu" font-size="11.5" font-weight="400" font-style="normal" 
>
</g>

<g fill="#000000" fill-opacity="1" stroke="#000000" stroke-opacity="1" stroke-width="1" stroke-linecap="square" stroke-linejoin="bevel" transform="matrix(1,0,0,1,450,455)"
font-family="Ubuntu" font-size="11.5" font-weight="400" font-style="normal" 
>
<polyline fill="none" vector-effect="none" points="-171,-320 -30,-320 " />
<polyline fill="none" vector-effect="none" points="-30,-320 -30,0 " />
<polyline fill="none" vector-effect="none" points="-30,0 -181,0 " />
<polyline fill="none" vector-effect="none" points="-169,5 -181,0 -169,-5 " />
</g>

<g fill="none" stroke="#000000" stroke-opacity="1" stroke-width="1" stroke-linecap="square" stroke-linejoin="bevel" transform="matrix(1,0,0,1,450,455)"
font-family="Ubuntu" font-size="11.5" font-weight="400" font-style="normal" 
>
</g>

<g fill="none" stroke="#000000" stroke-opacity="1" stroke-width="1" stroke-linecap="square" stroke-linejoin="bevel" transform="matrix(1,0,0,1,450,455)"
font-family="Ubuntu" font-size="11.5" font-weight="400" font-style="normal" 
>
</g>

<g fill="#000000" fill-opacity="1" stroke="#000000" stroke-opacity="1" stroke-width="1" stroke-linecap="square" stroke-linejoin="bevel" transform="matrix(1,0,0,1,450,455)"
font-family="Ubuntu" font-size="11.5" font-weight="400" font-style="normal" 
>
<polyline fill="none" vector-effect="none" points="-190,-241 -190,-219 " />
<polyline fill="none" vector-effect="none" points="-185,-231 -190,-219 -195,-231 " />
</g>

<g fill="none" stroke="#000000" stroke-opacity="1" stroke-width="1" stroke-linecap="square" stroke-linejoin="bevel" transform="matrix(1,0,0,1,450,455)"
font-family="Ubuntu" font-size="11.5" font-weight="400" font-style="normal" 
>
</g>

<g fill="none" stroke="#000000" stroke-opacity="1" stroke-width="1" stroke-linecap="square" stroke-linejoin="bevel" transform="matrix(1,0,0,1,450,455)"
font-family="Ubuntu" font-size="11.5" font-weight="400" font-style="normal" 
>
</g>

<g fill="#000000" fill-opacity="1" stroke="#000000" stroke-opacity="1" stroke-width="1" stroke-linecap="square" stroke-linejoin="bevel" transform="matrix(1,0,0,1,450,455)"
font-family="Ubuntu" font-size="11.5" font-weight="400" font-style="normal" 
>
<polyline fill="none" vector-effect="none" points="-171,-260 -30,-260 " />
<polyline fill="none" vector-effect="none" points="-30,-260 -30,0 " />
<polyline fill="none" vector-effect="none" points="-30,0 -181,0 " />
<polyline fill="none" vector-effect="none" points="-169,5 -181,0 -169,-5 " />
</g>

<g fill="none" stroke="#000000" stroke-opacity="1" stroke-width="1" stroke-linecap="square" stroke-linejoin="bevel" transform="matrix(1,0,0,1,450,455)"
font-family="Ubuntu" font-size="11.5" font-weight="400" font-style="normal" 
>
</g>

<g fill="none" stroke="#000000" stroke-opacity="1" stroke-width="1" stroke-linecap="square" stroke-linejoin="bevel" transform="matrix(1,0,0,1,450,455)"
font-family="Ubuntu" font-size="11.5" font-weight="400" font-style="normal" 
>
</g>

<g fill="#000000" fill-opacity="1" stroke="#000000" stroke-opacity="1" stroke-width="1" stroke-linecap="square" stroke-linejoin="bevel" transform="matrix(1,0,0,1,450,455)"
font-family="Ubuntu" font-size="11.5" font-weight="400" font-style="normal" 
>
<polyline fill="none" vector-effect="none" points="-190,-111 -190,-89 " />
<polyline fill="none" vector-effect="none" points="-185,-101 -190,-89 -195,-101 " />
</g>

<g fill="none" stroke="#000000" stroke-opacity="1" stroke-width="1" stroke-linecap="square" stroke-linejoin="bevel" transform="matrix(1,0,0,1,450,455)"
font-family="Ubuntu" font-size="11.5" font-weight="400" font-style="normal" 
>
</g>

<g fill="none" stroke="#000000" stroke-opacity="1" stroke-width="1" stroke-linecap="square" stroke-linejoin="bevel" transform="matrix(1,0,0,1,450,455)"
font-family="Ubuntu" font-size="11.5" font-weight="400" font-style="normal" 
>
</g>

<g fill="#000000" fill-opacity="1" stroke="#000000" stroke-opacity="1" stroke-width="1" stroke-linecap="square" stroke-linejoin="bevel" transform="matrix(1,0,0,1,450,455)"
font-family="Ubuntu" font-size="11.5" font-weight="400" font-style="normal" 
>
<polyline fill="none" vector-effect="none" points="-190,-41 -190,-9 " />
<polyline fill="none" vector-effect="none" points="-185,-21 -190,-9 -195,-21 " />
</g>

<g fill="none" stroke="#000000" stroke-opacity="1" stroke-width="1" stroke-linecap="square" stroke-linejoin="bevel" transform="matrix(1,0,0,1,450,455)"
font-family="Ubuntu" font-size="11.5" font-weight="400" font-style="normal" 
>
</g>

<g fill="none" stroke="#000000" stroke-opacity="1" stroke-width="1" stroke-linecap="square" stroke-linejoin="bevel" transform="matrix(1,0,0,1,450,455)"
font-family="Ubuntu" font-size="11.5" font-weight="400" font-style="normal" 
>
</g>

<g fill="#000000" fill-opacity="1" stroke="#000000" stroke-opacity="1" stroke-width="1" stroke-linecap="square" stroke-linejoin="bevel" transform="matrix(1,0,0,1,450,455)"
font-family="Ubuntu" font-size="11.5" font-weight="400" font-style="normal" 
>
<polyline fill="none" vector-effect="none" points="-171,-130 -30,-130 " />
<polyline fill="none" vector-effect="none" points="-30,-130 -30,0 " />
<polyline fill="none" vector-effect="none" points="-30,0 -181,0 " />
<polyline fill="none" vector-effect="none" points="-169,5 -181,0 -169,-5 " />
</g>

<g fill="none" stroke="#000000" stroke-opacity="1" stroke-width="1" stroke-linecap="square" stroke-linejoin="bevel" transform="matrix(1,0,0,1,450,455)"
font-family="Ubuntu" font-size="11.5" font-weight="400" font-style="normal" 
>
</g>

<g fill="none" stroke="#000000" stroke-opacity="1" stroke-width="1" stroke-linecap="square" stroke-linejoin="bevel" transform="matrix(1,0,0,1,15,29)"
font-family="Ubuntu" font-size="11.5" font-weight="400" font-style="normal" 
>
</g>

<g fill="none" stroke="#141312" stroke-opacity="1" stroke-width="1" stroke-linecap="square" stroke-linejoin="bevel" transform="matrix(1,0,0,1,18,32)"
font-family="Ubuntu" font-size="11.5" font-weight="400" font-style="normal" 
>
<text fill="#141312" fill-opacity="1" stroke="none" xml:space="preserve" x="17" y="16" font-family="DejaVu Sans Mono" font-size="12.7778" font-weight="400" font-style="normal" 
 >Does the environment</text>
<text fill="#141312" fill-opacity="1" stroke="none" xml:space="preserve" x="5" y="31" font-family="DejaVu Sans Mono" font-size="12.7778" font-weight="400" font-style="normal" 
 >variable &quot;WAFDIR&quot; point</text>
<text fill="#141312" fill-opacity="1" stroke="none" xml:space="preserve" x="9" y="46" font-family="DejaVu Sans Mono" font-size="12.7778" font-weight="400" font-style="normal" 
 >to a folder containing</text>
<text fill="#141312" fill-opacity="1" stroke="none" xml:space="preserve" x="61" y="61" font-family="DejaVu Sans Mono" font-size="12.7778" font-weight="400" font-style="normal" 
 >&quot;waflib&quot;?</text>
</g>

<g fill="none" stroke="#000000" stroke-opacity="1" stroke-width="1" stroke-linecap="square" stroke-linejoin="bevel" transform="matrix(1,0,0,1,15,29)"
font-family="Ubuntu" font-size="11.5" font-weight="400" font-style="normal" 
>
</g>

<g fill="none" stroke="#000000" stroke-opacity="1" stroke-width="1" stroke-linecap="square" stroke-linejoin="bevel" transform="matrix(1,0,0,1,15,29)"
font-family="Ubuntu" font-size="11.5" font-weight="400" font-style="normal" 
>
</g>

<g fill="none" stroke="#000000" stroke-opacity="1" stroke-width="1" stroke-linecap="square" stroke-linejoin="bevel" transform="matrix(1,0,0,1,15,111)"
font-family="Ubuntu" font-size="11.5" font-weight="400" font-style="normal" 
>
</g>

<g fill="none" stroke="#141312" stroke-opacity="1" stroke-width="1" stroke-linecap="square" stroke-linejoin="bevel" transform="matrix(1,0,0,1,18,114)"
font-family="Ubuntu" font-size="11.5" font-weight="400" font-style="normal" 
>
<text fill="#141312" fill-opacity="1" stroke="none" xml:space="preserve" x="13" y="16" font-family="DejaVu Sans Mono" font-size="12.7778" font-weight="400" font-style="normal" 
 >Does the &quot;waf&quot; folder</text>
<text fill="#141312" fill-opacity="1" stroke="none" xml:space="preserve" x="29" y="31" font-family="DejaVu Sans Mono" font-size="12.7778" font-weight="400" font-style="normal" 
 >contain &quot;waflib&quot;?</text>
</g>

<g fill="none" stroke="#000000" stroke-opacity="1" stroke-width="1" stroke-linecap="square" stroke-linejoin="bevel" transform="matrix(1,0,0,1,15,111)"
font-family="Ubuntu" font-size="11.5" font-weight="400" font-style="normal" 
>
</g>

<g fill="none" stroke="#000000" stroke-opacity="1" stroke-width="1" stroke-linecap="square" stroke-linejoin="bevel" transform="matrix(1,0,0,1,15,111)"
font-family="Ubuntu" font-size="11.5" font-weight="400" font-style="normal" 
>
</g>

<g fill="none" stroke="#000000" stroke-opacity="1" stroke-width="1" stroke-linecap="square" stroke-linejoin="bevel" transform="matrix(1,0,0,1,15,157)"
font-family="Ubuntu" font-size="11.5" font-weight="400" font-style="normal" 
>
</g>

<g fill="none" stroke="#141312" stroke-opacity="1" stroke-width="1" stroke-linecap="square" stroke-linejoin="bevel" transform="matrix(1,0,0,1,18,160)"
font-family="Ubuntu" font-size="11.5" font-weight="400" font-style="normal" 
>
<text fill="#141312" fill-opacity="1" stroke="none" xml:space="preserve" x="17" y="16" font-family="DejaVu Sans Mono" font-size="12.7778" font-weight="400" font-style="normal" 
 >Was the .waf-version</text>
<text fill="#141312" fill-opacity="1" stroke="none" xml:space="preserve" x="13" y="31" font-family="DejaVu Sans Mono" font-size="12.7778" font-weight="400" font-style="normal" 
 >folder extracted from</text>
<text fill="#141312" fill-opacity="1" stroke="none" xml:space="preserve" x="29" y="46" font-family="DejaVu Sans Mono" font-size="12.7778" font-weight="400" font-style="normal" 
 >the &quot;waf&quot; script?</text>
</g>

<g fill="none" stroke="#000000" stroke-opacity="1" stroke-width="1" stroke-linecap="square" stroke-linejoin="bevel" transform="matrix(1,0,0,1,15,157)"
font-family="Ubuntu" font-size="11.5" font-weight="400" font-style="normal" 
>
</g>

<g fill="none" stroke="#000000" stroke-opacity="1" stroke-width="1" stroke-linecap="square" stroke-linejoin="bevel" transform="matrix(1,0,0,1,15,157)"
font-family="Ubuntu" font-size="11.5" font-weight="400" font-style="normal" 
>
</g>

<g fill="none" stroke="#000000" stroke-opacity="1" stroke-width="1" stroke-linecap="square" stroke-linejoin="bevel" transform="matrix(1,0,0,1,15,292)"
font-family="Ubuntu" font-size="11.5" font-weight="400" font-style="normal" 
>
</g>

<g fill="none" stroke="#141312" stroke-opacity="1" stroke-width="1" stroke-linecap="square" stroke-linejoin="bevel" transform="matrix(1,0,0,1,18,295)"
font-family="Ubuntu" font-size="11.5" font-weight="400" font-style="normal" 
>
<text fill="#141312" fill-opacity="1" stroke="none" xml:space="preserve" x="13" y="16" font-family="DejaVu Sans Mono" font-size="12.7778" font-weight="400" font-style="normal" 
 >Is the local &quot;waflib&quot;</text>
<text fill="#141312" fill-opacity="1" stroke="none" xml:space="preserve" x="41" y="31" font-family="DejaVu Sans Mono" font-size="12.7778" font-weight="400" font-style="normal" 
 >folder usable?</text>
</g>

<g fill="none" stroke="#000000" stroke-opacity="1" stroke-width="1" stroke-linecap="square" stroke-linejoin="bevel" transform="matrix(1,0,0,1,15,292)"
font-family="Ubuntu" font-size="11.5" font-weight="400" font-style="normal" 
>
</g>

<g fill="none" stroke="#000000" stroke-opacity="1" stroke-width="1" stroke-linecap="square" stroke-linejoin="bevel" transform="matrix(1,0,0,1,15,292)"
font-family="Ubuntu" font-size="11.5" font-weight="400" font-style="normal" 
>
</g>

<g fill="none" stroke="#000000" stroke-opacity="1" stroke-width="1" stroke-linecap="square" stroke-linejoin="bevel" transform="matrix(1,0,0,1,262,300)"
font-family="Ubuntu" font-size="11.5" font-weight="400" font-style="normal" 
>
</g>

<g fill="none" stroke="#141312" stroke-opacity="1" stroke-width="1" stroke-linecap="square" stroke-linejoin="bevel" transform="matrix(1,0,0,1,265,303)"
font-family="Ubuntu" font-size="11.5" font-weight="400" font-style="normal" 
>
<text fill="#141312" fill-opacity="1" stroke="none" xml:space="preserve" x="15" y="16" font-family="DejaVu Sans Mono" font-size="12.7778" font-weight="400" font-style="normal" 
 >Yes</text>
</g>

<g fill="none" stroke="#000000" stroke-opacity="1" stroke-width="1" stroke-linecap="square" stroke-linejoin="bevel" transform="matrix(1,0,0,1,262,300)"
font-family="Ubuntu" font-size="11.5" font-weight="400" font-style="normal" 
>
</g>

<g fill="none" stroke="#000000" stroke-opacity="1" stroke-width="1" stroke-linecap="square" stroke-linejoin="bevel" transform="matrix(1,0,0,1,262,300)"
font-family="Ubuntu" font-size="11.5" font-weight="400" font-style="normal" 
>
</g>

<g fill="none" stroke="#000000" stroke-opacity="1" stroke-width="1" stroke-linecap="square" stroke-linejoin="bevel" transform="matrix(1,0,0,1,262,169)"
font-family="Ubuntu" font-size="11.5" font-weight="400" font-style="normal" 
>
</g>

<g fill="none" stroke="#141312" stroke-opacity="1" stroke-width="1" stroke-linecap="square" stroke-linejoin="bevel" transform="matrix(1,0,0,1,265,172)"
font-family="Ubuntu" font-size="11.5" font-weight="400" font-style="normal" 
>
<text fill="#141312" fill-opacity="1" stroke="none" xml:space="preserve" x="15" y="16" font-family="DejaVu Sans Mono" font-size="12.7778" font-weight="400" font-style="normal" 
 >Yes</text>
</g>

<g fill="none" stroke="#000000" stroke-opacity="1" stroke-width="1" stroke-linecap="square" stroke-linejoin="bevel" transform="matrix(1,0,0,1,262,169)"
font-family="Ubuntu" font-size="11.5" font-weight="400" font-style="normal" 
>
</g>

<g fill="none" stroke="#000000" stroke-opacity="1" stroke-width="1" stroke-linecap="square" stroke-linejoin="bevel" transform="matrix(1,0,0,1,262,169)"
font-family="Ubuntu" font-size="11.5" font-weight="400" font-style="normal" 
>
</g>

<g fill="none" stroke="#000000" stroke-opacity="1" stroke-width="1" stroke-linecap="square" stroke-linejoin="bevel" transform="matrix(1,0,0,1,261,105)"
font-family="Ubuntu" font-size="11.5" font-weight="400" font-style="normal" 
>
</g>

<g fill="none" stroke="#141312" stroke-opacity="1" stroke-width="1" stroke-linecap="square" stroke-linejoin="bevel" transform="matrix(1,0,0,1,264,108)"
font-family="Ubuntu" font-size="11.5" font-weight="400" font-style="normal" 
>
<text fill="#141312" fill-opacity="1" stroke="none" xml:space="preserve" x="15" y="16" font-family="DejaVu Sans Mono" font-size="12.7778" font-weight="400" font-style="normal" 
 >Yes</text>
</g>

<g fill="none" stroke="#000000" stroke-opacity="1" stroke-width="1" stroke-linecap="square" stroke-linejoin="bevel" transform="matrix(1,0,0,1,261,105)"
font-family="Ubuntu" font-size="11.5" font-weight="400" font-style="normal" 
>
</g>

<g fill="none" stroke="#000000" stroke-opacity="1" stroke-width="1" stroke-linecap="square" stroke-linejoin="bevel" transform="matrix(1,0,0,1,261,105)"
font-family="Ubuntu" font-size="11.5" font-weight="400" font-style="normal" 
>
</g>

<g fill="none" stroke="#000000" stroke-opacity="1" stroke-width="1" stroke-linecap="square" stroke-linejoin="bevel" transform="matrix(1,0,0,1,260,44)"
font-family="Ubuntu" font-size="11.5" font-weight="400" font-style="normal" 
>
</g>

<g fill="none" stroke="#141312" stroke-opacity="1" stroke-width="1" stroke-linecap="square" stroke-linejoin="bevel" transform="matrix(1,0,0,1,263,47)"
font-family="Ubuntu" font-size="11.5" font-weight="400" font-style="normal" 
>
<text fill="#141312" fill-opacity="1" stroke="none" xml:space="preserve" x="15" y="16" font-family="DejaVu Sans Mono" font-size="12.7778" font-weight="400" font-style="normal" 
 >Yes</text>
</g>

<g fill="none" stroke="#000000" stroke-opacity="1" stroke-width="1" stroke-linecap="square" stroke-linejoin="bevel" transform="matrix(1,0,0,1,260,44)"
font-family="Ubuntu" font-size="11.5" font-weight="400" font-style="normal" 
>
</g>

<g fill="none" stroke="#000000" stroke-opacity="1" stroke-width="1" stroke-linecap="square" stroke-linejoin="bevel" transform="matrix(1,0,0,1,260,44)"
font-family="Ubuntu" font-size="11.5" font-weight="400" font-style="normal" 
>
</g>

<g fill="none" stroke="#000000" stroke-opacity="1" stroke-width="1" stroke-linecap="square" stroke-linejoin="bevel" transform="matrix(1,0,0,1,250,15)"
font-family="Ubuntu" font-size="11.5" font-weight="400" font-style="normal" 
>
</g>

<g fill="#000000" fill-opacity="1" stroke="#000000" stroke-opacity="1" stroke-width="1" stroke-linecap="square" stroke-linejoin="bevel" transform="matrix(1,0,0,1,250,15)"
font-family="Ubuntu" font-size="11.5" font-weight="400" font-style="normal" 
>
<path vector-effect="none" fill-rule="evenodd" d="M18,10 C18,14.4183 14.4183,18 10,18 C5.58172,18 2,14.4183 2,10 C2,5.58172 5.58172,2 10,2 C14.4183,2 18,5.58172 18,10 "/>
</g>

<g fill="none" stroke="#000000" stroke-opacity="1" stroke-width="1" stroke-linecap="square" stroke-linejoin="bevel" transform="matrix(1,0,0,1,250,15)"
font-family="Ubuntu" font-size="11.5" font-weight="400" font-style="normal" 
>
</g>

<g fill="none" stroke="#000000" stroke-opacity="1" stroke-width="1" stroke-linecap="square" stroke-linejoin="bevel" transform="matrix(1,0,0,1,250,15)"
font-family="Ubuntu" font-size="11.5" font-weight="400" font-style="normal" 
>
</g>

<g fill="none" stroke="#000000" stroke-opacity="1" stroke-width="1" stroke-linecap="square" stroke-linejoin="bevel" transform="matrix(1,0,0,1,250,445)"
font-family="Ubuntu" font-size="11.5" font-weight="400" font-style="normal" 
>
</g>

<g fill="none" stroke="#000000" stroke-opacity="1" stroke-width="1" stroke-linecap="square" stroke-linejoin="bevel" transform="matrix(1,0,0,1,250,445)"
font-family="Ubuntu" font-size="11.5" font-weight="400" font-style="normal" 
>
<path vector-effect="none" fill-rule="evenodd" d="M18,10 C18,14.4183 14.4183,18 10,18 C5.58172,18 2,14.4183 2,10 C2,5.58172 5.58172,2 10,2 C14.4183,2 18,5.58172 18,10 "/>
</g>

<g fill="#000000" fill-opacity="1" stroke="#000000" stroke-opacity="1" stroke-width="1" stroke-linecap="square" stroke-linejoin="bevel" transform="matrix(1,0,0,1,250,445)"
font-family="Ubuntu" font-size="11.5" font-weight="400" font-style="normal" 
>
<path vector-effect="none" fill-rule="evenodd" d="M15,10 C15,12.7614 12.7614,15 10,15 C7.23858,15 5,12.7614 5,10 C5,7.23858 7.23858,5 10,5 C12.7614,5 15,7.23858 15,10 "/>
</g>

<g fill="none" stroke="#000000" stroke-opacity="1" stroke-width="1" stroke-linecap="square" stroke-linejoin="bevel" transform="matrix(1,0,0,1,250,445)"
font-family="Ubuntu" font-size="11.5" font-weight="400" font-style="normal" 
>
</g>

<g fill="none" stroke="#000000" stroke-opacity="1" stroke-width="1" stroke-linecap="square" stroke-linejoin="bevel" transform="matrix(1,0,0,1,250,445)"
font-family="Ubuntu" font-size="11.5" font-weight="400" font-style="normal" 
>
</g>

<g fill="none" stroke="#000000" stroke-opacity="1" stroke-width="1" stroke-linecap="square" stroke-linejoin="bevel" transform="matrix(1,0,0,1,170,235)"
font-family="Ubuntu" font-size="11.5" font-weight="400" font-style="normal" 
>
</g>

<g fill="url(#gradient5)" stroke="#000000" stroke-opacity="1" stroke-width="1" stroke-linecap="square" stroke-linejoin="bevel" transform="matrix(1,0,0,1,170,235)"
font-family="DejaVu Sans Mono" font-size="12.7778" font-weight="400" font-style="normal" 
>
<path vector-effect="none" fill-rule="evenodd" d="M2,6.6 C2,4.05949 9.87979,2 19.6,2 L160.4,2 C170.12,2 178,4.05949 178,6.6 L178,43.4 C178,45.9405 170.12,48 160.4,48 L19.6,48 C9.87979,48 2,45.9405 2,43.4 L2,6.6"/>
</g>

<g fill="url(#gradient6)" stroke="#000000" stroke-opacity="1" stroke-width="1" stroke-linecap="square" stroke-linejoin="bevel" transform="matrix(1,0,0,1,173,241)"
font-family="DejaVu Sans Mono" font-size="12.7778" font-weight="400" font-style="normal" 
>
<text fill="#000000" fill-opacity="1" stroke="none" xml:space="preserve" x="19" y="16" font-family="DejaVu Sans Mono" font-size="12.7778" font-weight="400" font-style="normal" 
 >Unpack the stream</text>
<text fill="#000000" fill-opacity="1" stroke="none" xml:space="preserve" x="15" y="31" font-family="DejaVu Sans Mono" font-size="12.7778" font-weight="400" font-style="normal" 
 >contained in &quot;waf&quot;</text>
</g>

<g fill="none" stroke="#000000" stroke-opacity="1" stroke-width="1" stroke-linecap="square" stroke-linejoin="bevel" transform="matrix(1,0,0,1,170,235)"
font-family="Ubuntu" font-size="11.5" font-weight="400" font-style="normal" 
>
</g>

<g fill="none" stroke="#000000" stroke-opacity="1" stroke-width="1" stroke-linecap="square" stroke-linejoin="bevel" transform="matrix(1,0,0,1,170,365)"
font-family="Ubuntu" font-size="11.5" font-weight="400" font-style="normal" 
>
</g>

<g fill="url(#gradient7)" stroke="#000000" stroke-opacity="1" stroke-width="1" stroke-linecap="square" stroke-linejoin="bevel" transform="matrix(1,0,0,1,170,365)"
font-family="DejaVu Sans Mono" font-size="12.7778" font-weight="400" font-style="normal" 
>
<path vector-effect="none" fill-rule="evenodd" d="M2,6.6 C2,4.05949 9.87979,2 19.6,2 L160.4,2 C170.12,2 178,4.05949 178,6.6 L178,43.4 C178,45.9405 170.12,48 160.4,48 L19.6,48 C9.87979,48 2,45.9405 2,43.4 L2,6.6"/>
</g>

<g fill="url(#gradient8)" stroke="#000000" stroke-opacity="1" stroke-width="1" stroke-linecap="square" stroke-linejoin="bevel" transform="matrix(1,0,0,1,173,371)"
font-family="DejaVu Sans Mono" font-size="12.7778" font-weight="400" font-style="normal" 
>
<text fill="#000000" fill-opacity="1" stroke="none" xml:space="preserve" x="7" y="16" font-family="DejaVu Sans Mono" font-size="12.7778" font-weight="400" font-style="normal" 
 >No waflib directory,</text>
<text fill="#000000" fill-opacity="1" stroke="none" xml:space="preserve" x="31" y="31" font-family="DejaVu Sans Mono" font-size="12.7778" font-weight="400" font-style="normal" 
 >raise an error</text>
</g>

<g fill="none" stroke="#000000" stroke-opacity="1" stroke-width="1" stroke-linecap="square" stroke-linejoin="bevel" transform="matrix(1,0,0,1,170,365)"
font-family="Ubuntu" font-size="11.5" font-weight="400" font-style="normal" 
>
</g>

<g fill="none" stroke="#000000" stroke-opacity="1" stroke-width="1" stroke-linecap="square" stroke-linejoin="bevel" transform="matrix(1,0,0,1,0,0)"
font-family="Ubuntu" font-size="11.5" font-weight="400" font-style="normal" 
>
</g>
</g>
</svg>
